<svg xmlns="http://www.w3.org/2000/svg" width="1012.767" height="792.469" viewBox="0 0 1012.767 792.469">
  <g id="Destaque_3_4" data-name="Destaque 3+4" transform="translate(-505.01 -1636)">
    <g id="Destaque_04" data-name="Destaque 04" transform="translate(505.01 1646)">
      <path id="Caminho_23436" data-name="Caminho 23436" d="M782.469,391.231C782.469,175.158,607.307,0,391.234,0S0,175.158,0,391.231,175.161,782.466,391.234,782.466,782.469,607.3,782.469,391.231" transform="translate(0 0.004)" fill="#a2d45e"/>
      <path id="Caminho_23437" data-name="Caminho 23437" d="M396.81,741.107c-.1-.021-.194-.039-.294-.052a3.543,3.543,0,0,0-3.986,3.036,9.04,9.04,0,0,0,2.525,7.711,8,8,0,0,0,6.8,2.32c3.349-.477,3.556.719,3.681,1.433a13.334,13.334,0,0,0,1.361,4.1,8.572,8.572,0,0,0,9.842,4.356,2.028,2.028,0,0,1,1.314.006,1.8,1.8,0,0,1,.293,1.156,3.542,3.542,0,1,0,7.082-.193,7.895,7.895,0,0,0-10.134-7.9,2.275,2.275,0,0,1-1.608-.112,4.213,4.213,0,0,1-1.171-2.618,8.408,8.408,0,0,0-5.168-6.642,12.474,12.474,0,0,0-6.491-.594,1.028,1.028,0,0,1-.808-.334,1.985,1.985,0,0,1-.495-1.734,3.54,3.54,0,0,0-2.741-3.933" transform="translate(0 -727.174)" fill="#d53915"/>
      <path id="Caminho_23438" data-name="Caminho 23438" d="M395.294,740.3c-.1-.021-.194-.039-.294-.052a3.543,3.543,0,0,0-3.985,3.036,9.039,9.039,0,0,0,2.524,7.711,8,8,0,0,0,6.8,2.32c3.348-.477,3.556.719,3.68,1.433a13.387,13.387,0,0,0,1.361,4.1,8.574,8.574,0,0,0,9.843,4.356,2.025,2.025,0,0,1,1.313.006,1.791,1.791,0,0,1,.294,1.156,3.542,3.542,0,1,0,7.082-.193,7.9,7.9,0,0,0-10.135-7.9,2.275,2.275,0,0,1-1.608-.112,4.212,4.212,0,0,1-1.17-2.618,8.408,8.408,0,0,0-5.168-6.642,12.475,12.475,0,0,0-6.491-.594,1.03,1.03,0,0,1-.809-.334,1.986,1.986,0,0,1-.494-1.734,3.542,3.542,0,0,0-2.742-3.933" transform="translate(0 -725.558)" fill="#ff9e18"/>
      <path id="Caminho_23439" data-name="Caminho 23439" d="M314.965,746.318c-.084.052-.166.107-.247.167a3.542,3.542,0,0,0-.752,4.953,9.039,9.039,0,0,0,7.176,3.785,8,8,0,0,0,6.5-3.062c2.074-2.671,3.055-1.957,3.641-1.53a13.38,13.38,0,0,0,3.828,2,8.574,8.574,0,0,0,10.1-3.716c.484-.713.856-.9.948-.909s.464.087,1.016.626a3.542,3.542,0,1,0,4.953-5.065,7.9,7.9,0,0,0-12.78,1.37,2.271,2.271,0,0,1-1.232,1.038,4.2,4.2,0,0,1-2.662-1.067,8.409,8.409,0,0,0-8.333-1.178,12.478,12.478,0,0,0-5.077,4.089,1.029,1.029,0,0,1-.813.322,1.985,1.985,0,0,1-1.561-.9,3.543,3.543,0,0,0-4.706-.918" transform="translate(0 -713.676)" fill="#d53915"/>
      <path id="Caminho_23440" data-name="Caminho 23440" d="M314.437,744.683c-.084.052-.167.107-.247.167a3.542,3.542,0,0,0-.752,4.953,9.039,9.039,0,0,0,7.176,3.785,8,8,0,0,0,6.5-3.062c2.074-2.671,3.055-1.957,3.641-1.53a13.38,13.38,0,0,0,3.828,2,8.574,8.574,0,0,0,10.1-3.716c.484-.713.856-.9.948-.909s.464.087,1.016.626a3.542,3.542,0,1,0,4.953-5.065,7.9,7.9,0,0,0-12.78,1.37,2.275,2.275,0,0,1-1.232,1.038,4.2,4.2,0,0,1-2.662-1.067,8.409,8.409,0,0,0-8.333-1.178,12.479,12.479,0,0,0-5.077,4.089,1.029,1.029,0,0,1-.813.322,1.985,1.985,0,0,1-1.561-.9,3.543,3.543,0,0,0-4.706-.918" transform="translate(0 -710.406)" fill="#ff9e18"/>
      <path id="Caminho_23441" data-name="Caminho 23441" d="M373.332,692.569a2.713,2.713,0,0,0-.3.043,3.539,3.539,0,0,0-2.831,4.131,9.039,9.039,0,0,0,4.815,6.532,8.01,8.01,0,0,0,7.184.069c3.029-1.5,3.6-.434,3.943.207a13.4,13.4,0,0,0,2.578,3.462,8.572,8.572,0,0,0,10.713,1.048,2.033,2.033,0,0,1,1.249-.406c.083.03.38.28.642,1.006a3.543,3.543,0,0,0,6.664-2.406,7.9,7.9,0,0,0-12.1-4.324,2.282,2.282,0,0,1-1.561.4,4.206,4.206,0,0,1-1.933-2.118,8.4,8.4,0,0,0-6.991-4.685,12.467,12.467,0,0,0-6.35,1.472,1.029,1.029,0,0,1-.872-.062,1.991,1.991,0,0,1-1.013-1.492,3.541,3.541,0,0,0-3.838-2.874" transform="translate(0 -621.086)" fill="#d53915"/>
      <path id="Caminho_23442" data-name="Caminho 23442" d="M372.147,691.326c-.1.01-.2.024-.3.043a3.541,3.541,0,0,0-2.831,4.132,9.035,9.035,0,0,0,4.815,6.531,8,8,0,0,0,7.184.069c3.029-1.5,3.6-.433,3.943.207a13.408,13.408,0,0,0,2.578,3.463,8.572,8.572,0,0,0,10.713,1.048,2.025,2.025,0,0,1,1.249-.406c.083.03.38.28.642,1.006a3.543,3.543,0,1,0,6.664-2.406,7.9,7.9,0,0,0-12.1-4.325,2.272,2.272,0,0,1-1.561.4,4.208,4.208,0,0,1-1.933-2.119,8.407,8.407,0,0,0-6.991-4.685,12.479,12.479,0,0,0-6.35,1.473,1.025,1.025,0,0,1-.872-.063,1.987,1.987,0,0,1-1.013-1.492,3.543,3.543,0,0,0-3.838-2.874" transform="translate(0 -618.601)" fill="#ff9e18"/>
      <path id="Caminho_23443" data-name="Caminho 23443" d="M602.791,670.667c-.1.01-.2.024-.3.043a3.541,3.541,0,0,0-2.831,4.132,9.036,9.036,0,0,0,4.815,6.531,8,8,0,0,0,7.184.069c3.029-1.5,3.6-.433,3.943.207a13.408,13.408,0,0,0,2.578,3.463A8.575,8.575,0,0,0,628.9,686.16a2.025,2.025,0,0,1,1.249-.406c.083.03.38.28.642,1.006a3.543,3.543,0,1,0,6.664-2.406,7.9,7.9,0,0,0-12.1-4.325,2.278,2.278,0,0,1-1.561.4,4.2,4.2,0,0,1-1.933-2.119,8.407,8.407,0,0,0-6.991-4.685,12.479,12.479,0,0,0-6.35,1.473,1.025,1.025,0,0,1-.872-.063,1.987,1.987,0,0,1-1.013-1.492,3.543,3.543,0,0,0-3.838-2.874" transform="translate(0 -577.283)" fill="#d53915"/>
      <path id="Caminho_23444" data-name="Caminho 23444" d="M601.6,669.424c-.1.01-.2.024-.295.043a3.541,3.541,0,0,0-2.831,4.132,9.035,9.035,0,0,0,4.815,6.531,8,8,0,0,0,7.183.069c3.03-1.5,3.6-.433,3.944.207A13.386,13.386,0,0,0,617,683.869a8.575,8.575,0,0,0,10.713,1.048,2.026,2.026,0,0,1,1.249-.406c.083.03.38.28.642,1.006a3.543,3.543,0,0,0,6.664-2.406,7.9,7.9,0,0,0-12.1-4.325,2.278,2.278,0,0,1-1.561.4,4.2,4.2,0,0,1-1.933-2.119,8.407,8.407,0,0,0-6.991-4.685,12.477,12.477,0,0,0-6.35,1.473,1.025,1.025,0,0,1-.872-.063,1.987,1.987,0,0,1-1.013-1.492,3.543,3.543,0,0,0-3.838-2.874" transform="translate(0 -574.797)" fill="#ff9e18"/>
      <path id="Caminho_23445" data-name="Caminho 23445" d="M489.05,718.076c-.1.01-.2.024-.295.043a3.541,3.541,0,0,0-2.831,4.132,9.035,9.035,0,0,0,4.815,6.531,8,8,0,0,0,7.184.069c3.029-1.5,3.6-.433,3.943.207a13.409,13.409,0,0,0,2.578,3.463,8.575,8.575,0,0,0,10.713,1.048,2.025,2.025,0,0,1,1.249-.406c.083.03.38.28.642,1.006a3.543,3.543,0,1,0,6.664-2.406,7.9,7.9,0,0,0-12.1-4.325,2.272,2.272,0,0,1-1.561.4,4.208,4.208,0,0,1-1.933-2.119,8.407,8.407,0,0,0-6.991-4.685,12.479,12.479,0,0,0-6.35,1.473,1.025,1.025,0,0,1-.872-.063,1.987,1.987,0,0,1-1.013-1.492,3.543,3.543,0,0,0-3.838-2.874" transform="translate(0 -672.101)" fill="#d53915"/>
      <path id="Caminho_23446" data-name="Caminho 23446" d="M487.864,716.834c-.1.01-.2.024-.3.043a3.541,3.541,0,0,0-2.831,4.132,9.035,9.035,0,0,0,4.815,6.531,8,8,0,0,0,7.184.069c3.029-1.5,3.6-.433,3.943.207a13.409,13.409,0,0,0,2.578,3.463,8.575,8.575,0,0,0,10.713,1.048,2.025,2.025,0,0,1,1.249-.406c.083.03.38.28.642,1.006a3.543,3.543,0,1,0,6.664-2.406,7.9,7.9,0,0,0-12.1-4.325,2.278,2.278,0,0,1-1.561.4,4.2,4.2,0,0,1-1.933-2.119,8.407,8.407,0,0,0-6.991-4.685,12.48,12.48,0,0,0-6.35,1.473,1.025,1.025,0,0,1-.872-.063,1.987,1.987,0,0,1-1.013-1.492,3.543,3.543,0,0,0-3.838-2.874" transform="translate(0 -669.617)" fill="#ff9e18"/>
      <path id="Caminho_23447" data-name="Caminho 23447" d="M299.645,677.826c-.079-.06-.161-.117-.245-.171a3.541,3.541,0,0,0-4.893,1.071,9.038,9.038,0,0,0-.967,8.056,8,8,0,0,0,5.186,4.972c3.237.98,2.921,2.152,2.732,2.852a13.4,13.4,0,0,0-.495,4.289,8.572,8.572,0,0,0,7.086,8.1c.839.2,1.147.477,1.189.56a1.791,1.791,0,0,1-.222,1.173,3.543,3.543,0,0,0,6.5,2.812,7.9,7.9,0,0,0-5.856-11.443,2.272,2.272,0,0,1-1.41-.779,4.208,4.208,0,0,1,.044-2.868,8.4,8.4,0,0,0-1.884-8.2,12.482,12.482,0,0,0-5.635-3.277,1.024,1.024,0,0,1-.591-.643,1.987,1.987,0,0,1,.283-1.782,3.543,3.543,0,0,0-.826-4.722" transform="translate(0 -608.309)" fill="#d53915"/>
      <path id="Caminho_23448" data-name="Caminho 23448" d="M297.929,677.734c-.078-.06-.16-.117-.244-.171a3.542,3.542,0,0,0-4.894,1.071,9.04,9.04,0,0,0-.966,8.056,8,8,0,0,0,5.186,4.972c3.237.98,2.921,2.152,2.732,2.852a13.376,13.376,0,0,0-.5,4.289,8.573,8.573,0,0,0,7.086,8.1c.839.2,1.147.477,1.189.56a1.789,1.789,0,0,1-.222,1.172,3.543,3.543,0,1,0,6.5,2.813,7.9,7.9,0,0,0-5.855-11.443,2.272,2.272,0,0,1-1.41-.779,4.208,4.208,0,0,1,.044-2.868,8.408,8.408,0,0,0-1.884-8.2,12.481,12.481,0,0,0-5.635-3.277,1.029,1.029,0,0,1-.592-.643,1.991,1.991,0,0,1,.284-1.782,3.543,3.543,0,0,0-.827-4.722" transform="translate(0 -608.124)" fill="#ff9e18"/>
      <path id="Caminho_23449" data-name="Caminho 23449" d="M695.472,559.562c-.078-.06-.16-.117-.244-.171a3.542,3.542,0,0,0-4.894,1.071,9.04,9.04,0,0,0-.966,8.056,8,8,0,0,0,5.186,4.972c3.237.98,2.921,2.152,2.732,2.852a13.373,13.373,0,0,0-.495,4.289,8.572,8.572,0,0,0,7.086,8.1c.839.2,1.147.477,1.189.56a1.791,1.791,0,0,1-.222,1.173,3.542,3.542,0,0,0,6.5,2.812,7.9,7.9,0,0,0-5.855-11.443,2.272,2.272,0,0,1-1.41-.779,4.209,4.209,0,0,1,.044-2.868,8.407,8.407,0,0,0-1.884-8.2,12.481,12.481,0,0,0-5.635-3.277,1.028,1.028,0,0,1-.592-.643,1.991,1.991,0,0,1,.284-1.782,3.543,3.543,0,0,0-.827-4.722" transform="translate(0 -371.78)" fill="#d53915"/>
      <path id="Caminho_23450" data-name="Caminho 23450" d="M693.757,559.469c-.078-.06-.16-.117-.244-.171a3.542,3.542,0,0,0-4.894,1.071,9.04,9.04,0,0,0-.966,8.056,8,8,0,0,0,5.186,4.972c3.237.98,2.921,2.152,2.732,2.852a13.377,13.377,0,0,0-.495,4.289,8.572,8.572,0,0,0,7.086,8.1c.839.2,1.147.477,1.189.56a1.789,1.789,0,0,1-.222,1.172,3.543,3.543,0,0,0,6.5,2.813,7.9,7.9,0,0,0-5.855-11.443,2.272,2.272,0,0,1-1.41-.779,4.208,4.208,0,0,1,.044-2.868,8.407,8.407,0,0,0-1.884-8.2,12.48,12.48,0,0,0-5.635-3.277,1.028,1.028,0,0,1-.592-.643,1.991,1.991,0,0,1,.284-1.782,3.543,3.543,0,0,0-.827-4.722" transform="translate(0 -371.595)" fill="#ff9e18"/>
      <path id="Caminho_23451" data-name="Caminho 23451" d="M548.047,650.93c-.078-.06-.16-.117-.244-.171a3.542,3.542,0,0,0-4.894,1.071,9.04,9.04,0,0,0-.966,8.056,8,8,0,0,0,5.186,4.972c3.237.98,2.921,2.152,2.732,2.852a13.374,13.374,0,0,0-.495,4.289,8.572,8.572,0,0,0,7.086,8.1c.839.2,1.147.477,1.189.56a1.8,1.8,0,0,1-.222,1.173,3.542,3.542,0,0,0,6.5,2.812,7.9,7.9,0,0,0-5.855-11.443,2.272,2.272,0,0,1-1.41-.779,4.208,4.208,0,0,1,.044-2.868,8.407,8.407,0,0,0-1.884-8.2,12.482,12.482,0,0,0-5.635-3.277,1.028,1.028,0,0,1-.592-.643,1.991,1.991,0,0,1,.284-1.782,3.543,3.543,0,0,0-.827-4.722" transform="translate(0 -554.517)" fill="#d53915"/>
      <path id="Caminho_23452" data-name="Caminho 23452" d="M546.332,650.837c-.078-.061-.16-.117-.244-.171a3.543,3.543,0,0,0-4.894,1.071,9.04,9.04,0,0,0-.966,8.056,8,8,0,0,0,5.186,4.972c3.237.98,2.921,2.152,2.732,2.852a13.376,13.376,0,0,0-.495,4.289,8.572,8.572,0,0,0,7.086,8.1c.839.2,1.147.477,1.189.56a1.792,1.792,0,0,1-.222,1.173,3.542,3.542,0,0,0,6.5,2.812,7.9,7.9,0,0,0-5.855-11.443,2.272,2.272,0,0,1-1.41-.779,4.208,4.208,0,0,1,.044-2.868,8.407,8.407,0,0,0-1.884-8.2,12.491,12.491,0,0,0-5.635-3.278,1.025,1.025,0,0,1-.592-.642,1.991,1.991,0,0,1,.284-1.782,3.542,3.542,0,0,0-.827-4.722" transform="translate(0 -554.33)" fill="#ff9e18"/>
      <path id="Caminho_23453" data-name="Caminho 23453" d="M218.632,702.415c-.1.01-.2.024-.295.043a3.541,3.541,0,0,0-2.831,4.132,9.035,9.035,0,0,0,4.815,6.531,8,8,0,0,0,7.184.069c3.029-1.5,3.6-.433,3.943.207a13.409,13.409,0,0,0,2.578,3.463,8.575,8.575,0,0,0,10.713,1.048,2.025,2.025,0,0,1,1.249-.406c.083.03.38.28.642,1.006a3.543,3.543,0,0,0,6.664-2.406,7.9,7.9,0,0,0-12.1-4.325,2.278,2.278,0,0,1-1.561.4,4.2,4.2,0,0,1-1.933-2.119,8.407,8.407,0,0,0-6.991-4.685,12.48,12.48,0,0,0-6.35,1.473,1.025,1.025,0,0,1-.872-.063,1.987,1.987,0,0,1-1.013-1.492,3.543,3.543,0,0,0-3.838-2.874" transform="translate(0 -640.779)" fill="#d53915"/>
      <path id="Caminho_23454" data-name="Caminho 23454" d="M217.446,701.173c-.1.01-.2.024-.295.043a3.541,3.541,0,0,0-2.831,4.132,9.035,9.035,0,0,0,4.815,6.531,8,8,0,0,0,7.184.069c3.029-1.5,3.6-.433,3.943.207a13.409,13.409,0,0,0,2.578,3.463,8.576,8.576,0,0,0,10.713,1.048,2.025,2.025,0,0,1,1.249-.406c.083.03.38.28.642,1.006a3.543,3.543,0,0,0,6.664-2.406,7.9,7.9,0,0,0-12.1-4.325,2.278,2.278,0,0,1-1.561.4,4.2,4.2,0,0,1-1.933-2.119,8.407,8.407,0,0,0-6.991-4.685,12.48,12.48,0,0,0-6.35,1.473,1.025,1.025,0,0,1-.872-.063,1.987,1.987,0,0,1-1.013-1.492,3.543,3.543,0,0,0-3.838-2.874" transform="translate(0 -638.295)" fill="#ff9e18"/>
      <path id="Caminho_23455" data-name="Caminho 23455" d="M237.8,643.421c-.1-.01-.2-.017-.3-.019a3.543,3.543,0,0,0-3.617,3.466,9.042,9.042,0,0,0,3.378,7.378,8,8,0,0,0,7.017,1.538c3.273-.852,3.615.313,3.818,1.009a13.394,13.394,0,0,0,1.815,3.917,8.572,8.572,0,0,0,10.272,3.218,2.019,2.019,0,0,1,1.3-.142,1.79,1.79,0,0,1,.423,1.116,3.542,3.542,0,1,0,7.015-.991,7.9,7.9,0,0,0-10.963-6.711,2.279,2.279,0,0,1-1.609.071,4.215,4.215,0,0,1-1.459-2.47,8.407,8.407,0,0,0-5.884-6.016,12.48,12.48,0,0,0-6.517.142,1.029,1.029,0,0,1-.841-.24,1.991,1.991,0,0,1-.687-1.668,3.542,3.542,0,0,0-3.168-3.6" transform="translate(0 -528.884)" fill="#d53915"/>
      <path id="Caminho_23456" data-name="Caminho 23456" d="M236.383,642.448c-.1-.01-.2-.017-.3-.019a3.543,3.543,0,0,0-3.617,3.466,9.042,9.042,0,0,0,3.378,7.378,8,8,0,0,0,7.017,1.538c3.273-.852,3.615.313,3.818,1.009a13.394,13.394,0,0,0,1.815,3.917,8.572,8.572,0,0,0,10.272,3.218,2.019,2.019,0,0,1,1.3-.142,1.789,1.789,0,0,1,.423,1.116,3.542,3.542,0,0,0,7.015-.991,7.9,7.9,0,0,0-10.963-6.711,2.274,2.274,0,0,1-1.609.071,4.215,4.215,0,0,1-1.459-2.47,8.407,8.407,0,0,0-5.884-6.016,12.48,12.48,0,0,0-6.517.142,1.027,1.027,0,0,1-.841-.24,1.991,1.991,0,0,1-.687-1.668,3.542,3.542,0,0,0-3.168-3.6" transform="translate(0 -526.938)" fill="#ff9e18"/>
      <path id="Caminho_23457" data-name="Caminho 23457" d="M384.408,645.851c-.088.045-.174.094-.26.147a3.542,3.542,0,0,0-1.138,4.878,9.039,9.039,0,0,0,6.856,4.338,8,8,0,0,0,6.72-2.542c2.278-2.5,3.2-1.71,3.75-1.239a13.361,13.361,0,0,0,3.659,2.292,8.574,8.574,0,0,0,10.363-2.91c.538-.673.924-.83,1.016-.832s.456.123.963.7a3.543,3.543,0,0,0,5.337-4.66,7.9,7.9,0,0,0-12.848.362,2.277,2.277,0,0,1-1.311.938,4.22,4.22,0,0,1-2.57-1.273,8.4,8.4,0,0,0-8.214-1.829,12.483,12.483,0,0,0-5.383,3.676,1.026,1.026,0,0,1-.835.258,1.988,1.988,0,0,1-1.486-1.023,3.543,3.543,0,0,0-4.619-1.285" transform="translate(0 -515.684)" fill="#d53915"/>
      <path id="Caminho_23458" data-name="Caminho 23458" d="M383.754,644.263c-.088.045-.174.094-.26.147a3.542,3.542,0,0,0-1.138,4.878,9.039,9.039,0,0,0,6.856,4.338,8,8,0,0,0,6.72-2.542c2.278-2.5,3.2-1.71,3.75-1.239a13.346,13.346,0,0,0,3.659,2.292,8.574,8.574,0,0,0,10.363-2.91c.538-.673.924-.83,1.016-.832s.456.123.963.7a3.543,3.543,0,0,0,5.337-4.66,7.9,7.9,0,0,0-12.848.362,2.277,2.277,0,0,1-1.311.938,4.22,4.22,0,0,1-2.57-1.273,8.4,8.4,0,0,0-8.214-1.829,12.482,12.482,0,0,0-5.383,3.676,1.026,1.026,0,0,1-.835.258,1.988,1.988,0,0,1-1.486-1.023,3.543,3.543,0,0,0-4.619-1.285" transform="translate(0 -512.507)" fill="#ff9e18"/>
      <path id="Caminho_23459" data-name="Caminho 23459" d="M521.91,538.43c-.088.045-.174.094-.26.147a3.542,3.542,0,0,0-1.138,4.878,9.039,9.039,0,0,0,6.856,4.338,8,8,0,0,0,6.72-2.542c2.278-2.5,3.2-1.711,3.75-1.239A13.36,13.36,0,0,0,541.5,546.3a8.574,8.574,0,0,0,10.363-2.91c.538-.673.924-.83,1.016-.832s.456.123.963.7a3.543,3.543,0,0,0,5.337-4.66,7.9,7.9,0,0,0-12.848.362,2.277,2.277,0,0,1-1.311.938,4.217,4.217,0,0,1-2.57-1.274,8.406,8.406,0,0,0-8.214-1.828,12.483,12.483,0,0,0-5.383,3.676,1.026,1.026,0,0,1-.835.258,1.988,1.988,0,0,1-1.486-1.023,3.543,3.543,0,0,0-4.619-1.285" transform="translate(0 -300.842)" fill="#d53915"/>
      <path id="Caminho_23460" data-name="Caminho 23460" d="M521.256,536.843c-.088.045-.174.094-.26.146a3.544,3.544,0,0,0-1.138,4.879,9.035,9.035,0,0,0,6.856,4.337,8,8,0,0,0,6.72-2.541c2.278-2.5,3.2-1.71,3.75-1.24a13.341,13.341,0,0,0,3.659,2.293,8.574,8.574,0,0,0,10.363-2.91c.538-.673.924-.831,1.016-.832s.456.122.963.7a3.543,3.543,0,0,0,5.337-4.66,7.9,7.9,0,0,0-12.848.362,2.275,2.275,0,0,1-1.311.937,4.214,4.214,0,0,1-2.57-1.273,8.4,8.4,0,0,0-8.214-1.828,12.483,12.483,0,0,0-5.383,3.676,1.03,1.03,0,0,1-.835.258,1.991,1.991,0,0,1-1.486-1.024,3.542,3.542,0,0,0-4.619-1.284" transform="translate(0 -297.665)" fill="#ff9e18"/>
      <path id="Caminho_23461" data-name="Caminho 23461" d="M620.627,553.194c-.088.045-.174.094-.26.147a3.542,3.542,0,0,0-1.138,4.878,9.039,9.039,0,0,0,6.856,4.338,8,8,0,0,0,6.72-2.542c2.278-2.5,3.2-1.71,3.75-1.239a13.359,13.359,0,0,0,3.659,2.292,8.574,8.574,0,0,0,10.363-2.91c.538-.673.924-.83,1.016-.832s.456.123.963.7a3.543,3.543,0,0,0,5.337-4.66,7.9,7.9,0,0,0-12.848.362,2.277,2.277,0,0,1-1.311.938,4.22,4.22,0,0,1-2.57-1.273,8.4,8.4,0,0,0-8.214-1.829,12.483,12.483,0,0,0-5.383,3.676,1.026,1.026,0,0,1-.835.258,1.988,1.988,0,0,1-1.486-1.023,3.543,3.543,0,0,0-4.619-1.285" transform="translate(0 -330.369)" fill="#d53915"/>
      <path id="Caminho_23462" data-name="Caminho 23462" d="M619.973,551.607c-.088.044-.174.094-.26.146a3.543,3.543,0,0,0-1.138,4.879,9.038,9.038,0,0,0,6.856,4.337,8,8,0,0,0,6.72-2.542c2.278-2.5,3.2-1.709,3.75-1.239a13.375,13.375,0,0,0,3.659,2.293,8.573,8.573,0,0,0,10.363-2.911c.538-.673.924-.83,1.016-.832s.456.123.963.705a3.543,3.543,0,0,0,5.337-4.66,7.9,7.9,0,0,0-12.848.362,2.279,2.279,0,0,1-1.311.937,4.22,4.22,0,0,1-2.57-1.273,8.4,8.4,0,0,0-8.214-1.828,12.482,12.482,0,0,0-5.383,3.675,1.023,1.023,0,0,1-.835.258,1.988,1.988,0,0,1-1.486-1.023,3.541,3.541,0,0,0-4.619-1.284" transform="translate(0 -327.194)" fill="#ff9e18"/>
      <path id="Caminho_23463" data-name="Caminho 23463" d="M448.642,662.95c-.1.027-.189.058-.283.093a3.542,3.542,0,0,0-2.069,4.563,9.038,9.038,0,0,0,5.878,5.592,8,8,0,0,0,7.087-1.182c2.721-2.007,3.471-1.053,3.919-.483a13.368,13.368,0,0,0,3.142,2.962,8.572,8.572,0,0,0,10.731-.832c.66-.555,1.068-.634,1.159-.618s.424.21.808.879a3.542,3.542,0,1,0,6.143-3.529,7.9,7.9,0,0,0-12.672-2.153,2.268,2.268,0,0,1-1.468.664,4.212,4.212,0,0,1-2.272-1.75,8.411,8.411,0,0,0-7.7-3.4,12.484,12.484,0,0,0-6,2.556,1.029,1.029,0,0,1-.87.09,1.99,1.99,0,0,1-1.258-1.293,3.542,3.542,0,0,0-4.279-2.162" transform="translate(0 -556.347)" fill="#d53915"/>
      <path id="Caminho_23464" data-name="Caminho 23464" d="M447.691,661.52c-.1.027-.189.058-.283.093a3.542,3.542,0,0,0-2.069,4.563,9.038,9.038,0,0,0,5.878,5.592,8,8,0,0,0,7.087-1.181c2.721-2.008,3.471-1.054,3.919-.484a13.37,13.37,0,0,0,3.142,2.962,8.572,8.572,0,0,0,10.731-.832c.66-.555,1.068-.634,1.159-.618s.424.21.808.879a3.542,3.542,0,1,0,6.143-3.529,7.9,7.9,0,0,0-12.672-2.153,2.268,2.268,0,0,1-1.468.664,4.211,4.211,0,0,1-2.272-1.75,8.408,8.408,0,0,0-7.7-3.4,12.473,12.473,0,0,0-6,2.555,1.029,1.029,0,0,1-.87.09,1.989,1.989,0,0,1-1.258-1.293,3.542,3.542,0,0,0-4.279-2.162" transform="translate(0 -553.487)" fill="#ff9e18"/>
      <path id="Caminho_23465" data-name="Caminho 23465" d="M378.077,578.256c-.1.005-.2.013-.3.026a3.541,3.541,0,0,0-3.054,3.971,9.035,9.035,0,0,0,4.448,6.785,8,8,0,0,0,7.169.465c3.108-1.334,3.621-.234,3.927.423a13.379,13.379,0,0,0,2.383,3.6,8.573,8.573,0,0,0,10.639,1.636,2.021,2.021,0,0,1,1.27-.337c.081.035.364.3.585,1.04a3.542,3.542,0,0,0,6.786-2.036,7.9,7.9,0,0,0-11.847-4.984,2.276,2.276,0,0,1-1.581.311,4.206,4.206,0,0,1-1.813-2.222,8.409,8.409,0,0,0-6.723-5.062,12.476,12.476,0,0,0-6.421,1.121,1.028,1.028,0,0,1-.868-.111,1.99,1.99,0,0,1-.929-1.545,3.543,3.543,0,0,0-3.674-3.081" transform="translate(0 -394.176)" fill="#d53915"/>
      <path id="Caminho_23466" data-name="Caminho 23466" d="M376.825,577.081c-.1.005-.2.013-.3.026a3.542,3.542,0,0,0-3.054,3.971,9.035,9.035,0,0,0,4.448,6.785,8,8,0,0,0,7.169.465c3.108-1.334,3.621-.234,3.927.423a13.381,13.381,0,0,0,2.383,3.6,8.574,8.574,0,0,0,10.639,1.636,2.021,2.021,0,0,1,1.27-.337c.081.035.364.3.585,1.04a3.542,3.542,0,0,0,6.786-2.036,7.9,7.9,0,0,0-11.847-4.984,2.276,2.276,0,0,1-1.581.311,4.206,4.206,0,0,1-1.813-2.222,8.409,8.409,0,0,0-6.723-5.062,12.485,12.485,0,0,0-6.421,1.121,1.028,1.028,0,0,1-.868-.111,1.989,1.989,0,0,1-.929-1.545,3.543,3.543,0,0,0-3.674-3.081" transform="translate(0 -391.826)" fill="#ff9e18"/>
      <path id="Caminho_23467" data-name="Caminho 23467" d="M444.412,579.76c-.076.063-.149.13-.221.2a3.542,3.542,0,0,0-.032,5.009,9.038,9.038,0,0,0,7.646,2.715,8,8,0,0,0,5.991-3.964c1.669-2.942,2.742-2.376,3.384-2.037a13.369,13.369,0,0,0,4.075,1.426,8.573,8.573,0,0,0,9.463-5.129c.376-.775.718-1.014.807-1.036a1.786,1.786,0,0,1,1.1.474A3.542,3.542,0,1,0,480.8,571.7a7.9,7.9,0,0,0-12.45,3.192,2.28,2.28,0,0,1-1.071,1.205,4.214,4.214,0,0,1-2.788-.674,8.409,8.409,0,0,0-8.415.032,12.473,12.473,0,0,0-4.437,4.776,1.03,1.03,0,0,1-.758.436,1.991,1.991,0,0,1-1.675-.669,3.543,3.543,0,0,0-4.789-.233" transform="translate(0 -375.153)" fill="#d53915"/>
      <path id="Caminho_23468" data-name="Caminho 23468" d="M444.125,578.066c-.076.063-.149.13-.221.2a3.542,3.542,0,0,0-.032,5.009,9.038,9.038,0,0,0,7.646,2.715,8,8,0,0,0,5.991-3.964c1.669-2.942,2.742-2.376,3.384-2.037a13.368,13.368,0,0,0,4.075,1.426,8.573,8.573,0,0,0,9.463-5.129c.376-.775.718-1.014.807-1.036a1.786,1.786,0,0,1,1.1.474A3.542,3.542,0,1,0,480.508,570a7.9,7.9,0,0,0-12.45,3.192,2.28,2.28,0,0,1-1.071,1.205,4.214,4.214,0,0,1-2.788-.674,8.411,8.411,0,0,0-8.416.032,12.479,12.479,0,0,0-4.436,4.776,1.03,1.03,0,0,1-.758.436,1.99,1.99,0,0,1-1.675-.669,3.543,3.543,0,0,0-4.789-.233" transform="translate(0 -371.765)" fill="#ff9e18"/>
      <path id="Caminho_23469" data-name="Caminho 23469" d="M566.313,501.189c-.076.063-.149.13-.221.2a3.542,3.542,0,0,0-.032,5.009,9.038,9.038,0,0,0,7.646,2.715,8,8,0,0,0,5.991-3.964c1.669-2.942,2.742-2.376,3.384-2.037a13.369,13.369,0,0,0,4.075,1.426,8.573,8.573,0,0,0,9.463-5.129c.376-.775.718-1.014.807-1.036a1.786,1.786,0,0,1,1.095.474,3.542,3.542,0,1,0,4.175-5.724,7.9,7.9,0,0,0-12.45,3.192,2.28,2.28,0,0,1-1.071,1.205,4.214,4.214,0,0,1-2.788-.674,8.411,8.411,0,0,0-8.416.032,12.479,12.479,0,0,0-4.436,4.776,1.03,1.03,0,0,1-.758.436,1.991,1.991,0,0,1-1.675-.669,3.543,3.543,0,0,0-4.789-.233" transform="translate(0 -218.011)" fill="#d53915"/>
      <path id="Caminho_23470" data-name="Caminho 23470" d="M566.026,499.5c-.076.063-.149.13-.221.2a3.542,3.542,0,0,0-.032,5.009,9.038,9.038,0,0,0,7.646,2.715,8,8,0,0,0,5.991-3.964c1.669-2.942,2.742-2.376,3.384-2.037a13.369,13.369,0,0,0,4.075,1.426,8.573,8.573,0,0,0,9.463-5.129c.376-.775.718-1.014.807-1.036a1.784,1.784,0,0,1,1.1.474,3.542,3.542,0,1,0,4.175-5.724,7.9,7.9,0,0,0-12.45,3.192,2.28,2.28,0,0,1-1.071,1.205,4.214,4.214,0,0,1-2.788-.674,8.409,8.409,0,0,0-8.415.032,12.474,12.474,0,0,0-4.437,4.776,1.03,1.03,0,0,1-.758.436,1.991,1.991,0,0,1-1.675-.669,3.543,3.543,0,0,0-4.789-.233" transform="translate(0 -214.622)" fill="#ff9e18"/>
      <path id="Caminho_23471" data-name="Caminho 23471" d="M306.686,622.464q-.088.119-.168.246a3.542,3.542,0,0,0,1.132,4.88,9.036,9.036,0,0,0,8.067.866,8,8,0,0,0,4.907-5.247c.94-3.249,2.116-2.948,2.818-2.767a13.391,13.391,0,0,0,4.3.441,8.574,8.574,0,0,0,8.014-7.186c.186-.842.462-1.153.544-1.2a1.8,1.8,0,0,1,1.176.207,3.542,3.542,0,1,0,2.731-6.537,7.9,7.9,0,0,0-11.369,6,2.271,2.271,0,0,1-.762,1.42,4.21,4.21,0,0,1-2.868-.007,8.407,8.407,0,0,0-8.178,1.985,12.477,12.477,0,0,0-3.206,5.675,1.028,1.028,0,0,1-.637.6,1.988,1.988,0,0,1-1.784-.262,3.544,3.544,0,0,0-4.712.886" transform="translate(0 -451.958)" fill="#d53915"/>
      <path id="Caminho_23472" data-name="Caminho 23472" d="M306.8,620.75q-.088.118-.168.246a3.542,3.542,0,0,0,1.132,4.88,9.036,9.036,0,0,0,8.067.866,8,8,0,0,0,4.907-5.247c.94-3.249,2.116-2.948,2.818-2.767a13.391,13.391,0,0,0,4.3.441,8.574,8.574,0,0,0,8.014-7.186c.186-.842.462-1.153.544-1.2a1.8,1.8,0,0,1,1.176.207,3.542,3.542,0,0,0,2.731-6.537,7.9,7.9,0,0,0-11.369,6,2.271,2.271,0,0,1-.762,1.42,4.21,4.21,0,0,1-2.868-.007,8.406,8.406,0,0,0-8.178,1.985,12.477,12.477,0,0,0-3.206,5.675,1.028,1.028,0,0,1-.637.6,1.988,1.988,0,0,1-1.784-.262,3.544,3.544,0,0,0-4.712.886" transform="translate(0 -448.53)" fill="#ff9e18"/>
      <path id="Caminho_23473" data-name="Caminho 23473" d="M211.864,583.576c-.092-.036-.186-.069-.282-.1a3.543,3.543,0,0,0-4.4,2.4,9.039,9.039,0,0,0,1.327,8.005,8,8,0,0,0,6.369,3.323c3.382.034,3.406,1.249,3.421,1.974a13.362,13.362,0,0,0,.725,4.255,8.572,8.572,0,0,0,9.069,5.8,2.016,2.016,0,0,1,1.3.205,1.8,1.8,0,0,1,.115,1.187,3.543,3.543,0,0,0,7.03.882,7.9,7.9,0,0,0-8.822-9.348,2.285,2.285,0,0,1-1.572-.354,4.211,4.211,0,0,1-.76-2.766,8.409,8.409,0,0,0-4.1-7.347,12.5,12.5,0,0,0-6.327-1.571,1.025,1.025,0,0,1-.748-.451,1.989,1.989,0,0,1-.226-1.79,3.542,3.542,0,0,0-2.115-4.3" transform="translate(0 -415.475)" fill="#d53915"/>
      <path id="Caminho_23474" data-name="Caminho 23474" d="M210.243,583.008q-.138-.054-.282-.1a3.543,3.543,0,0,0-4.4,2.4,9.039,9.039,0,0,0,1.327,8,8,8,0,0,0,6.369,3.323c3.382.035,3.406,1.249,3.421,1.974a13.374,13.374,0,0,0,.725,4.256,8.573,8.573,0,0,0,9.069,5.8,2.024,2.024,0,0,1,1.3.205,1.8,1.8,0,0,1,.115,1.188,3.542,3.542,0,0,0,7.03.881,7.9,7.9,0,0,0-8.822-9.348,2.28,2.28,0,0,1-1.572-.354,4.21,4.21,0,0,1-.76-2.765,8.411,8.411,0,0,0-4.1-7.348,12.492,12.492,0,0,0-6.327-1.57,1.026,1.026,0,0,1-.748-.452,1.988,1.988,0,0,1-.226-1.789,3.543,3.543,0,0,0-2.115-4.3" transform="translate(0 -414.339)" fill="#ff9e18"/>
      <path id="Caminho_23475" data-name="Caminho 23475" d="M150.911,646.69c-.087.047-.172.1-.256.153a3.54,3.54,0,0,0-1.021,4.9,9.037,9.037,0,0,0,6.958,4.174,8.005,8.005,0,0,0,6.657-2.7c2.217-2.554,3.157-1.787,3.719-1.33a13.392,13.392,0,0,0,3.713,2.205,8.572,8.572,0,0,0,10.29-3.158c.522-.685.9-.853,1-.856s.459.112.98.681a3.542,3.542,0,0,0,5.223-4.786,7.9,7.9,0,0,0-12.835.668,2.282,2.282,0,0,1-1.288.97,4.215,4.215,0,0,1-2.6-1.211,8.4,8.4,0,0,0-8.256-1.632,12.483,12.483,0,0,0-5.292,3.8,1.029,1.029,0,0,1-.83.278,1.992,1.992,0,0,1-1.51-.987,3.543,3.543,0,0,0-4.648-1.174" transform="translate(0 -516.468)" fill="#d53915"/>
      <path id="Caminho_23476" data-name="Caminho 23476" d="M150.295,645.087c-.087.047-.172.1-.256.153a3.541,3.541,0,0,0-1.021,4.9,9.039,9.039,0,0,0,6.958,4.173,8.005,8.005,0,0,0,6.657-2.7c2.217-2.554,3.157-1.787,3.719-1.329a13.364,13.364,0,0,0,3.713,2.2,8.572,8.572,0,0,0,10.29-3.158c.522-.685.9-.852,1-.856s.459.113.98.681a3.542,3.542,0,1,0,5.223-4.786,7.9,7.9,0,0,0-12.835.669,2.28,2.28,0,0,1-1.288.969,4.215,4.215,0,0,1-2.6-1.211,8.407,8.407,0,0,0-8.256-1.632,12.478,12.478,0,0,0-5.292,3.8,1.031,1.031,0,0,1-.83.277,1.989,1.989,0,0,1-1.51-.987,3.543,3.543,0,0,0-4.648-1.174" transform="translate(0 -513.262)" fill="#ff9e18"/>
      <path id="Caminho_23477" data-name="Caminho 23477" d="M310.468,546.416c-.1.01-.2.024-.295.043a3.541,3.541,0,0,0-2.831,4.132,9.035,9.035,0,0,0,4.815,6.531,8,8,0,0,0,7.184.069c3.029-1.5,3.6-.433,3.943.207a13.409,13.409,0,0,0,2.578,3.463,8.575,8.575,0,0,0,10.713,1.048,2.026,2.026,0,0,1,1.249-.406c.083.03.38.28.642,1.006a3.543,3.543,0,0,0,6.664-2.406,7.9,7.9,0,0,0-12.1-4.325,2.273,2.273,0,0,1-1.561.4,4.2,4.2,0,0,1-1.933-2.119,8.407,8.407,0,0,0-6.991-4.685,12.479,12.479,0,0,0-6.35,1.473,1.025,1.025,0,0,1-.872-.063,1.987,1.987,0,0,1-1.013-1.492,3.543,3.543,0,0,0-3.838-2.874" transform="translate(0 -328.781)" fill="#d53915"/>
      <path id="Caminho_23478" data-name="Caminho 23478" d="M309.282,545.173c-.1.01-.2.024-.3.043a3.541,3.541,0,0,0-2.831,4.132,9.035,9.035,0,0,0,4.815,6.531,8,8,0,0,0,7.184.069c3.029-1.5,3.6-.433,3.943.207a13.409,13.409,0,0,0,2.578,3.463,8.575,8.575,0,0,0,10.713,1.048,2.025,2.025,0,0,1,1.249-.406c.083.03.38.28.642,1.006a3.543,3.543,0,0,0,6.664-2.406,7.9,7.9,0,0,0-12.1-4.325,2.278,2.278,0,0,1-1.561.4,4.2,4.2,0,0,1-1.933-2.119,8.407,8.407,0,0,0-6.991-4.685,12.48,12.48,0,0,0-6.35,1.473,1.025,1.025,0,0,1-.872-.063,1.987,1.987,0,0,1-1.013-1.492,3.543,3.543,0,0,0-3.838-2.874" transform="translate(0 -326.295)" fill="#ff9e18"/>
      <path id="Caminho_23479" data-name="Caminho 23479" d="M531.064,582.467c-.1.01-.2.024-.3.043a3.541,3.541,0,0,0-2.831,4.132,9.035,9.035,0,0,0,4.815,6.531,8,8,0,0,0,7.183.069c3.03-1.5,3.6-.433,3.944.207a13.386,13.386,0,0,0,2.578,3.463,8.575,8.575,0,0,0,10.713,1.048,2.025,2.025,0,0,1,1.249-.406c.083.03.38.28.642,1.006a3.543,3.543,0,1,0,6.664-2.406,7.9,7.9,0,0,0-12.1-4.325,2.278,2.278,0,0,1-1.561.4,4.2,4.2,0,0,1-1.933-2.119,8.407,8.407,0,0,0-6.991-4.685,12.477,12.477,0,0,0-6.35,1.473,1.025,1.025,0,0,1-.872-.063,1.987,1.987,0,0,1-1.013-1.492,3.543,3.543,0,0,0-3.838-2.874" transform="translate(0 -400.883)" fill="#d53915"/>
      <path id="Caminho_23480" data-name="Caminho 23480" d="M529.878,581.224c-.1.01-.2.024-.295.043a3.541,3.541,0,0,0-2.831,4.132,9.035,9.035,0,0,0,4.815,6.531,8,8,0,0,0,7.184.069c3.029-1.5,3.6-.433,3.943.207a13.411,13.411,0,0,0,2.578,3.463,8.575,8.575,0,0,0,10.713,1.048,2.025,2.025,0,0,1,1.249-.406c.083.03.38.28.642,1.006a3.543,3.543,0,1,0,6.664-2.406,7.9,7.9,0,0,0-12.1-4.325,2.278,2.278,0,0,1-1.561.4,4.208,4.208,0,0,1-1.933-2.119,8.407,8.407,0,0,0-6.991-4.685,12.479,12.479,0,0,0-6.35,1.473,1.025,1.025,0,0,1-.872-.063,1.987,1.987,0,0,1-1.013-1.492,3.543,3.543,0,0,0-3.838-2.874" transform="translate(0 -398.398)" fill="#ff9e18"/>
      <path id="Caminho_23481" data-name="Caminho 23481" d="M652.239,488.649c-.1.01-.2.024-.3.043a3.541,3.541,0,0,0-2.831,4.132,9.035,9.035,0,0,0,4.815,6.531,8,8,0,0,0,7.184.069c3.029-1.5,3.6-.433,3.943.207a13.409,13.409,0,0,0,2.578,3.463,8.572,8.572,0,0,0,10.713,1.048,2.025,2.025,0,0,1,1.249-.406c.083.03.38.28.642,1.006a3.543,3.543,0,0,0,6.664-2.406,7.9,7.9,0,0,0-12.1-4.325,2.273,2.273,0,0,1-1.561.4,4.2,4.2,0,0,1-1.933-2.119,8.407,8.407,0,0,0-6.991-4.685,12.48,12.48,0,0,0-6.35,1.473,1.025,1.025,0,0,1-.872-.063,1.987,1.987,0,0,1-1.013-1.492,3.543,3.543,0,0,0-3.838-2.874" transform="translate(0 -213.247)" fill="#d53915"/>
      <path id="Caminho_23482" data-name="Caminho 23482" d="M651.053,487.406c-.1.01-.2.024-.295.043a3.541,3.541,0,0,0-2.831,4.132,9.035,9.035,0,0,0,4.815,6.531,8,8,0,0,0,7.183.069c3.03-1.5,3.6-.433,3.944.207a13.386,13.386,0,0,0,2.578,3.463A8.575,8.575,0,0,0,677.16,502.9a2.026,2.026,0,0,1,1.249-.406c.083.03.38.28.642,1.006a3.543,3.543,0,0,0,6.664-2.406,7.9,7.9,0,0,0-12.1-4.325,2.272,2.272,0,0,1-1.561.4,4.2,4.2,0,0,1-1.933-2.119,8.407,8.407,0,0,0-6.991-4.685,12.477,12.477,0,0,0-6.35,1.473,1.025,1.025,0,0,1-.872-.063,1.987,1.987,0,0,1-1.013-1.492,3.543,3.543,0,0,0-3.838-2.874" transform="translate(0 -210.761)" fill="#ff9e18"/>
      <path id="Caminho_23483" data-name="Caminho 23483" d="M405.691,506.615c-.087-.047-.176-.09-.268-.13a3.542,3.542,0,0,0-4.663,1.831,9.041,9.041,0,0,0,.32,8.107,8.006,8.006,0,0,0,5.907,4.09c3.351.456,3.224,1.663,3.148,2.384a13.422,13.422,0,0,0,.19,4.314,8.574,8.574,0,0,0,8.278,6.879,2.027,2.027,0,0,1,1.262.365,1.789,1.789,0,0,1-.033,1.193A3.542,3.542,0,0,0,426.7,537.4a7.9,7.9,0,0,0-7.591-10.372,2.277,2.277,0,0,1-1.515-.547,4.209,4.209,0,0,1-.411-2.838,8.409,8.409,0,0,0-3.157-7.8,12.477,12.477,0,0,0-6.082-2.344,1.028,1.028,0,0,1-.686-.542,1.987,1.987,0,0,1,0-1.8,3.542,3.542,0,0,0-1.563-4.532" transform="translate(0 -263.788)" fill="#d53915"/>
      <path id="Caminho_23484" data-name="Caminho 23484" d="M404.012,506.252c-.087-.047-.176-.09-.268-.13a3.542,3.542,0,0,0-4.663,1.831,9.041,9.041,0,0,0,.32,8.107,8.006,8.006,0,0,0,5.907,4.09c3.351.456,3.224,1.663,3.148,2.384a13.422,13.422,0,0,0,.19,4.314,8.574,8.574,0,0,0,8.278,6.879,2.028,2.028,0,0,1,1.262.365,1.789,1.789,0,0,1-.033,1.193,3.543,3.543,0,0,0,6.866,1.748,7.9,7.9,0,0,0-7.591-10.372,2.277,2.277,0,0,1-1.515-.547,4.209,4.209,0,0,1-.411-2.838,8.409,8.409,0,0,0-3.157-7.8,12.477,12.477,0,0,0-6.082-2.344,1.028,1.028,0,0,1-.686-.542,1.987,1.987,0,0,1,0-1.8,3.542,3.542,0,0,0-1.563-4.532" transform="translate(0 -263.062)" fill="#ff9e18"/>
      <path id="Caminho_23485" data-name="Caminho 23485" d="M288.9,472.3c-.087-.047-.176-.09-.268-.13A3.542,3.542,0,0,0,283.968,474a9.041,9.041,0,0,0,.32,8.107,8.006,8.006,0,0,0,5.907,4.09c3.351.456,3.224,1.663,3.148,2.384a13.423,13.423,0,0,0,.19,4.314,8.574,8.574,0,0,0,8.278,6.879,2.028,2.028,0,0,1,1.262.365,1.789,1.789,0,0,1-.033,1.193,3.543,3.543,0,0,0,6.866,1.748,7.9,7.9,0,0,0-7.591-10.372,2.277,2.277,0,0,1-1.515-.547,4.209,4.209,0,0,1-.411-2.838,8.409,8.409,0,0,0-3.157-7.8,12.477,12.477,0,0,0-6.082-2.344,1.028,1.028,0,0,1-.686-.542,1.987,1.987,0,0,1,0-1.8A3.542,3.542,0,0,0,288.9,472.3" transform="translate(0 -195.158)" fill="#d53915"/>
      <path id="Caminho_23486" data-name="Caminho 23486" d="M287.22,471.937c-.087-.047-.176-.09-.268-.13a3.542,3.542,0,0,0-4.663,1.831,9.041,9.041,0,0,0,.32,8.107,8.006,8.006,0,0,0,5.907,4.09c3.351.456,3.224,1.663,3.148,2.384a13.422,13.422,0,0,0,.19,4.314,8.574,8.574,0,0,0,8.278,6.879,2.027,2.027,0,0,1,1.262.365,1.788,1.788,0,0,1-.033,1.193,3.543,3.543,0,0,0,6.866,1.748,7.9,7.9,0,0,0-7.591-10.372,2.277,2.277,0,0,1-1.515-.547,4.209,4.209,0,0,1-.411-2.838,8.409,8.409,0,0,0-3.157-7.8,12.477,12.477,0,0,0-6.082-2.344,1.028,1.028,0,0,1-.686-.542,1.987,1.987,0,0,1,0-1.8,3.542,3.542,0,0,0-1.563-4.532" transform="translate(0 -194.432)" fill="#ff9e18"/>
      <path id="Caminho_23487" data-name="Caminho 23487" d="M611.736,595.926c-.087-.047-.176-.09-.268-.13a3.542,3.542,0,0,0-4.663,1.831,9.041,9.041,0,0,0,.32,8.107,8.005,8.005,0,0,0,5.907,4.09c3.351.456,3.224,1.663,3.148,2.384a13.422,13.422,0,0,0,.19,4.314,8.574,8.574,0,0,0,8.278,6.879,2.027,2.027,0,0,1,1.262.365,1.788,1.788,0,0,1-.033,1.193,3.542,3.542,0,1,0,6.866,1.748,7.9,7.9,0,0,0-7.591-10.372,2.277,2.277,0,0,1-1.515-.547,4.209,4.209,0,0,1-.411-2.838,8.409,8.409,0,0,0-3.157-7.8,12.477,12.477,0,0,0-6.082-2.344,1.028,1.028,0,0,1-.686-.542,1.987,1.987,0,0,1,0-1.8,3.542,3.542,0,0,0-1.563-4.532" transform="translate(0 -442.41)" fill="#d53915"/>
      <path id="Caminho_23488" data-name="Caminho 23488" d="M610.057,595.563c-.087-.047-.176-.09-.268-.13a3.542,3.542,0,0,0-4.663,1.831,9.042,9.042,0,0,0,.32,8.107,8.006,8.006,0,0,0,5.907,4.09c3.351.456,3.224,1.663,3.148,2.384a13.421,13.421,0,0,0,.19,4.314,8.574,8.574,0,0,0,8.278,6.879,2.028,2.028,0,0,1,1.262.365,1.789,1.789,0,0,1-.033,1.193,3.543,3.543,0,0,0,6.866,1.748,7.9,7.9,0,0,0-7.591-10.372,2.278,2.278,0,0,1-1.515-.547,4.209,4.209,0,0,1-.411-2.838,8.409,8.409,0,0,0-3.157-7.8,12.477,12.477,0,0,0-6.082-2.344,1.028,1.028,0,0,1-.686-.542,1.987,1.987,0,0,1,0-1.8,3.542,3.542,0,0,0-1.563-4.532" transform="translate(0 -441.684)" fill="#ff9e18"/>
      <path id="Caminho_23489" data-name="Caminho 23489" d="M472.327,491.5c-.1.022-.192.049-.287.08a3.542,3.542,0,0,0-2.282,4.46,9.035,9.035,0,0,0,5.607,5.863,8,8,0,0,0,7.134-.845c2.814-1.877,3.518-.888,3.938-.3a13.381,13.381,0,0,0,3,3.107,8.575,8.575,0,0,0,10.759-.324c.685-.523,1.1-.583,1.187-.562s.413.229.765.916a3.542,3.542,0,0,0,6.3-3.235,7.9,7.9,0,0,0-12.555-2.749,2.274,2.274,0,0,1-1.5.594,4.209,4.209,0,0,1-2.187-1.855,8.409,8.409,0,0,0-7.531-3.757,12.479,12.479,0,0,0-6.11,2.269,1.031,1.031,0,0,1-.874.049,1.992,1.992,0,0,1-1.2-1.351,3.543,3.543,0,0,0-4.172-2.362" transform="translate(0 -214.771)" fill="#d53915"/>
      <path id="Caminho_23490" data-name="Caminho 23490" d="M471.309,490.12c-.1.022-.192.049-.287.08a3.542,3.542,0,0,0-2.282,4.46,9.035,9.035,0,0,0,5.607,5.863,8,8,0,0,0,7.134-.845c2.814-1.877,3.518-.888,3.938-.3a13.381,13.381,0,0,0,3,3.107,8.575,8.575,0,0,0,10.759-.324c.685-.523,1.1-.583,1.187-.562s.413.229.765.916a3.542,3.542,0,0,0,6.3-3.235,7.9,7.9,0,0,0-12.555-2.749,2.274,2.274,0,0,1-1.5.594,4.209,4.209,0,0,1-2.187-1.855,8.409,8.409,0,0,0-7.531-3.757,12.478,12.478,0,0,0-6.11,2.269,1.031,1.031,0,0,1-.874.049,1.992,1.992,0,0,1-1.2-1.351,3.543,3.543,0,0,0-4.172-2.362" transform="translate(0 -212.004)" fill="#ff9e18"/>
      <path id="Caminho_23491" data-name="Caminho 23491" d="M346.948,494.24c-.1.01-.2.024-.295.043a3.541,3.541,0,0,0-2.831,4.132,9.035,9.035,0,0,0,4.815,6.531,8,8,0,0,0,7.184.069c3.029-1.5,3.6-.433,3.943.207a13.409,13.409,0,0,0,2.578,3.463,8.575,8.575,0,0,0,10.713,1.048,2.025,2.025,0,0,1,1.249-.406c.083.03.38.28.642,1.006a3.543,3.543,0,0,0,6.664-2.406,7.9,7.9,0,0,0-12.1-4.325,2.273,2.273,0,0,1-1.561.4,4.209,4.209,0,0,1-1.933-2.119,8.407,8.407,0,0,0-6.991-4.685,12.48,12.48,0,0,0-6.35,1.473,1.025,1.025,0,0,1-.872-.063,1.987,1.987,0,0,1-1.013-1.492,3.543,3.543,0,0,0-3.838-2.874" transform="translate(0 -224.43)" fill="#d53915"/>
      <path id="Caminho_23492" data-name="Caminho 23492" d="M345.763,493c-.1.01-.2.024-.3.043a3.541,3.541,0,0,0-2.831,4.132,9.035,9.035,0,0,0,4.815,6.531,8,8,0,0,0,7.184.069c3.029-1.5,3.6-.433,3.943.207a13.408,13.408,0,0,0,2.578,3.463,8.575,8.575,0,0,0,10.713,1.048,2.026,2.026,0,0,1,1.249-.406c.083.03.38.28.642,1.006a3.543,3.543,0,1,0,6.664-2.406,7.9,7.9,0,0,0-12.1-4.325,2.273,2.273,0,0,1-1.561.4,4.2,4.2,0,0,1-1.933-2.119,8.407,8.407,0,0,0-6.991-4.685,12.479,12.479,0,0,0-6.35,1.473,1.025,1.025,0,0,1-.872-.063,1.987,1.987,0,0,1-1.013-1.492A3.543,3.543,0,0,0,345.763,493" transform="translate(0 -221.944)" fill="#ff9e18"/>
      <path id="Caminho_23493" data-name="Caminho 23493" d="M262.17,526.314c-.1.01-.2.024-.3.043a3.541,3.541,0,0,0-2.831,4.132,9.035,9.035,0,0,0,4.815,6.531,8,8,0,0,0,7.184.069c3.029-1.5,3.6-.433,3.943.207a13.409,13.409,0,0,0,2.578,3.463,8.575,8.575,0,0,0,10.713,1.048,2.026,2.026,0,0,1,1.249-.406c.083.03.38.28.642,1.006A3.543,3.543,0,0,0,296.832,540a7.9,7.9,0,0,0-12.1-4.325,2.278,2.278,0,0,1-1.561.4,4.209,4.209,0,0,1-1.933-2.119,8.407,8.407,0,0,0-6.991-4.685,12.479,12.479,0,0,0-6.35,1.473,1.025,1.025,0,0,1-.872-.063,1.987,1.987,0,0,1-1.013-1.492,3.543,3.543,0,0,0-3.838-2.874" transform="translate(0 -288.577)" fill="#d53915"/>
      <path id="Caminho_23494" data-name="Caminho 23494" d="M260.984,525.071c-.1.01-.2.024-.3.043a3.541,3.541,0,0,0-2.831,4.132,9.035,9.035,0,0,0,4.815,6.531,8,8,0,0,0,7.184.069c3.029-1.5,3.6-.433,3.943.207a13.409,13.409,0,0,0,2.578,3.463,8.575,8.575,0,0,0,10.713,1.048,2.025,2.025,0,0,1,1.249-.406c.083.03.38.28.642,1.006a3.543,3.543,0,1,0,6.664-2.406,7.9,7.9,0,0,0-12.1-4.325,2.278,2.278,0,0,1-1.561.4,4.2,4.2,0,0,1-1.933-2.119,8.407,8.407,0,0,0-6.991-4.685,12.48,12.48,0,0,0-6.35,1.473,1.025,1.025,0,0,1-.872-.063,1.987,1.987,0,0,1-1.013-1.492,3.543,3.543,0,0,0-3.838-2.874" transform="translate(0 -286.091)" fill="#ff9e18"/>
      <path id="Caminho_23495" data-name="Caminho 23495" d="M192.766,490.805c-.1.01-.2.024-.3.043a3.541,3.541,0,0,0-2.831,4.132,9.035,9.035,0,0,0,4.815,6.531,8,8,0,0,0,7.184.069c3.029-1.5,3.6-.433,3.943.207a13.409,13.409,0,0,0,2.578,3.463,8.575,8.575,0,0,0,10.713,1.048,2.025,2.025,0,0,1,1.249-.406c.083.03.38.28.642,1.006a3.543,3.543,0,1,0,6.664-2.406,7.9,7.9,0,0,0-12.1-4.325,2.278,2.278,0,0,1-1.561.4,4.2,4.2,0,0,1-1.933-2.119,8.407,8.407,0,0,0-6.991-4.685,12.479,12.479,0,0,0-6.35,1.473,1.025,1.025,0,0,1-.872-.063,1.987,1.987,0,0,1-1.013-1.492,3.543,3.543,0,0,0-3.838-2.874" transform="translate(0 -217.56)" fill="#d53915"/>
      <path id="Caminho_23496" data-name="Caminho 23496" d="M191.581,489.562c-.1.01-.2.024-.3.043a3.542,3.542,0,0,0-2.831,4.132,9.034,9.034,0,0,0,4.816,6.531,8,8,0,0,0,7.183.069c3.029-1.5,3.6-.433,3.943.207a13.434,13.434,0,0,0,2.579,3.463,8.574,8.574,0,0,0,10.713,1.048,2.025,2.025,0,0,1,1.248-.406c.084.03.38.28.642,1.006a3.543,3.543,0,0,0,6.664-2.406,7.9,7.9,0,0,0-12.1-4.325,2.275,2.275,0,0,1-1.562.4,4.2,4.2,0,0,1-1.932-2.119,8.409,8.409,0,0,0-6.991-4.685,12.48,12.48,0,0,0-6.351,1.473,1.022,1.022,0,0,1-.871-.063,1.987,1.987,0,0,1-1.013-1.492,3.543,3.543,0,0,0-3.838-2.874" transform="translate(0 -215.073)" fill="#ff9e18"/>
      <path id="Caminho_23497" data-name="Caminho 23497" d="M143.793,475.906c-.089-.043-.18-.082-.274-.117a3.541,3.541,0,0,0-4.569,2.054,9.038,9.038,0,0,0,.71,8.082,8,8,0,0,0,6.1,3.8c3.37.294,3.3,1.506,3.26,2.23a13.376,13.376,0,0,0,.4,4.3,8.574,8.574,0,0,0,8.6,6.473,2.027,2.027,0,0,1,1.278.3,1.789,1.789,0,0,1,.025,1.193,3.542,3.542,0,1,0,6.942,1.416,7.9,7.9,0,0,0-8.082-9.995,2.268,2.268,0,0,1-1.54-.473,4.209,4.209,0,0,1-.547-2.815,8.409,8.409,0,0,0-3.529-7.64,12.481,12.481,0,0,0-6.188-2.049,1.026,1.026,0,0,1-.712-.508,1.988,1.988,0,0,1-.088-1.8,3.543,3.543,0,0,0-1.78-4.452" transform="translate(0 -201.566)" fill="#d53915"/>
      <path id="Caminho_23498" data-name="Caminho 23498" d="M142.134,475.463c-.089-.043-.18-.082-.274-.117a3.542,3.542,0,0,0-4.569,2.054,9.038,9.038,0,0,0,.71,8.082,8,8,0,0,0,6.1,3.8c3.37.294,3.3,1.506,3.26,2.23a13.375,13.375,0,0,0,.4,4.3,8.574,8.574,0,0,0,8.6,6.473,2.026,2.026,0,0,1,1.278.3,1.789,1.789,0,0,1,.025,1.193A3.542,3.542,0,0,0,164.6,505.2a7.9,7.9,0,0,0-8.082-9.995,2.273,2.273,0,0,1-1.54-.472,4.213,4.213,0,0,1-.547-2.816,8.409,8.409,0,0,0-3.529-7.64,12.49,12.49,0,0,0-6.188-2.049,1.026,1.026,0,0,1-.712-.508,1.988,1.988,0,0,1-.088-1.8,3.543,3.543,0,0,0-1.78-4.452" transform="translate(0 -200.679)" fill="#ff9e18"/>
      <path id="Caminho_23499" data-name="Caminho 23499" d="M161.793,559.941c-.078.06-.154.125-.228.192a3.542,3.542,0,0,0-.214,5.005,9.038,9.038,0,0,0,7.542,2.992,8,8,0,0,0,6.131-3.744c1.775-2.879,2.827-2.274,3.456-1.912a13.384,13.384,0,0,0,4.02,1.574,8.577,8.577,0,0,0,9.644-4.782c.4-.761.754-.987.844-1.006a1.8,1.8,0,0,1,1.077.513,3.542,3.542,0,1,0,4.381-5.568,7.9,7.9,0,0,0-12.559,2.738,2.276,2.276,0,0,1-1.114,1.164,4.21,4.21,0,0,1-2.761-.775,8.411,8.411,0,0,0-8.411-.274,12.479,12.479,0,0,0-4.608,4.611,1.026,1.026,0,0,1-.773.408,1.988,1.988,0,0,1-1.65-.729,3.542,3.542,0,0,0-4.777-.407" transform="translate(0 -336.878)" fill="#d53915"/>
      <path id="Caminho_23500" data-name="Caminho 23500" d="M161.445,558.259c-.078.06-.154.125-.228.192a3.542,3.542,0,0,0-.214,5.005,9.038,9.038,0,0,0,7.542,2.992,8,8,0,0,0,6.131-3.744c1.775-2.879,2.827-2.274,3.456-1.912a13.384,13.384,0,0,0,4.02,1.574,8.577,8.577,0,0,0,9.644-4.782c.4-.761.754-.987.844-1.006a1.8,1.8,0,0,1,1.077.514,3.543,3.543,0,0,0,4.381-5.569,7.9,7.9,0,0,0-12.559,2.738,2.276,2.276,0,0,1-1.114,1.164,4.21,4.21,0,0,1-2.761-.775,8.411,8.411,0,0,0-8.411-.274,12.479,12.479,0,0,0-4.608,4.611,1.026,1.026,0,0,1-.773.408,1.988,1.988,0,0,1-1.65-.729,3.542,3.542,0,0,0-4.777-.407" transform="translate(0 -333.514)" fill="#ff9e18"/>
      <path id="Caminho_23501" data-name="Caminho 23501" d="M80.11,527.485c-.084-.052-.171-.1-.26-.146a3.542,3.542,0,0,0-4.764,1.549A9.039,9.039,0,0,0,74.921,537a8,8,0,0,0,5.652,4.435c3.318.656,3.119,1.853,3,2.569a13.394,13.394,0,0,0-.069,4.317,8.573,8.573,0,0,0,7.852,7.362c.855.113,1.189.361,1.238.44a1.793,1.793,0,0,1-.1,1.188,3.542,3.542,0,1,0,6.748,2.157,7.9,7.9,0,0,0-6.956-10.809,2.278,2.278,0,0,1-1.481-.636,4.217,4.217,0,0,1-.24-2.858,8.408,8.408,0,0,0-2.684-7.976,12.493,12.493,0,0,0-5.931-2.7,1.026,1.026,0,0,1-.653-.582,1.986,1.986,0,0,1,.107-1.8,3.544,3.544,0,0,0-1.29-4.618" transform="translate(0 -306.419)" fill="#d53915"/>
      <path id="Caminho_23502" data-name="Caminho 23502" d="M78.412,527.223c-.084-.052-.171-.1-.26-.146a3.542,3.542,0,0,0-4.764,1.549,9.039,9.039,0,0,0-.165,8.112,8,8,0,0,0,5.652,4.435c3.318.656,3.119,1.853,3,2.569a13.394,13.394,0,0,0-.069,4.317,8.573,8.573,0,0,0,7.852,7.362c.855.113,1.189.361,1.238.44a1.792,1.792,0,0,1-.1,1.188,3.542,3.542,0,1,0,6.748,2.157A7.9,7.9,0,0,0,90.584,548.4a2.278,2.278,0,0,1-1.481-.636,4.217,4.217,0,0,1-.24-2.858,8.408,8.408,0,0,0-2.684-7.976,12.493,12.493,0,0,0-5.931-2.7,1.026,1.026,0,0,1-.653-.582,1.986,1.986,0,0,1,.107-1.8,3.544,3.544,0,0,0-1.29-4.618" transform="translate(0 -305.895)" fill="#ff9e18"/>
      <path id="Caminho_23503" data-name="Caminho 23503" d="M65.889,491.812c-.1.01-.2.024-.295.043a3.541,3.541,0,0,0-2.831,4.132,9.035,9.035,0,0,0,4.815,6.531,8,8,0,0,0,7.184.069c3.029-1.5,3.6-.433,3.943.207a13.409,13.409,0,0,0,2.578,3.463A8.572,8.572,0,0,0,92,507.3a2.026,2.026,0,0,1,1.249-.406c.083.03.38.28.642,1.006a3.543,3.543,0,0,0,6.664-2.406,7.9,7.9,0,0,0-12.1-4.325,2.273,2.273,0,0,1-1.561.4,4.2,4.2,0,0,1-1.933-2.119,8.407,8.407,0,0,0-6.991-4.685,12.479,12.479,0,0,0-6.35,1.473,1.025,1.025,0,0,1-.872-.063,1.987,1.987,0,0,1-1.013-1.492,3.543,3.543,0,0,0-3.838-2.874" transform="translate(0 -219.573)" fill="#d53915"/>
      <path id="Caminho_23504" data-name="Caminho 23504" d="M64.7,490.57c-.1.009-.2.023-.3.042a3.541,3.541,0,0,0-2.831,4.132,9.035,9.035,0,0,0,4.815,6.531,8,8,0,0,0,7.184.069c3.029-1.5,3.6-.433,3.943.207a13.409,13.409,0,0,0,2.578,3.463,8.572,8.572,0,0,0,10.713,1.048,2.026,2.026,0,0,1,1.249-.406c.083.03.38.28.642,1.006a3.543,3.543,0,0,0,6.664-2.406,7.9,7.9,0,0,0-12.1-4.324,2.277,2.277,0,0,1-1.561.4,4.2,4.2,0,0,1-1.933-2.119,8.407,8.407,0,0,0-6.991-4.685A12.479,12.479,0,0,0,70.426,495a1.025,1.025,0,0,1-.872-.063,1.987,1.987,0,0,1-1.013-1.492A3.541,3.541,0,0,0,64.7,490.57" transform="translate(0 -217.089)" fill="#ff9e18"/>
      <path id="Caminho_23505" data-name="Caminho 23505" d="M109.792,572.6c-.1-.027-.192-.05-.29-.07a3.542,3.542,0,0,0-4.158,2.794,9.041,9.041,0,0,0,2.06,7.848,8,8,0,0,0,6.649,2.72c3.371-.277,3.507.929,3.588,1.649a13.414,13.414,0,0,0,1.115,4.172,8.575,8.575,0,0,0,9.567,4.933,2.034,2.034,0,0,1,1.311.084,1.8,1.8,0,0,1,.224,1.172,3.542,3.542,0,1,0,7.081.228,7.9,7.9,0,0,0-9.647-8.493,2.274,2.274,0,0,1-1.6-.207,4.213,4.213,0,0,1-1.013-2.683,8.408,8.408,0,0,0-4.764-6.938,12.491,12.491,0,0,0-6.444-.978,1.025,1.025,0,0,1-.787-.381,1.988,1.988,0,0,1-.391-1.761,3.542,3.542,0,0,0-2.5-4.089" transform="translate(0 -391.556)" fill="#d53915"/>
      <path id="Caminho_23506" data-name="Caminho 23506" d="M108.231,571.884c-.1-.027-.192-.05-.29-.07a3.542,3.542,0,0,0-4.158,2.794,9.038,9.038,0,0,0,2.06,7.848,8,8,0,0,0,6.649,2.72c3.371-.277,3.507.929,3.588,1.649A13.414,13.414,0,0,0,117.195,591a8.575,8.575,0,0,0,9.567,4.933,2.034,2.034,0,0,1,1.311.084,1.8,1.8,0,0,1,.224,1.172,3.542,3.542,0,1,0,7.081.228,7.9,7.9,0,0,0-9.647-8.493,2.274,2.274,0,0,1-1.6-.207,4.213,4.213,0,0,1-1.013-2.683,8.408,8.408,0,0,0-4.764-6.938,12.491,12.491,0,0,0-6.444-.978,1.025,1.025,0,0,1-.787-.381,1.988,1.988,0,0,1-.391-1.761,3.542,3.542,0,0,0-2.5-4.089" transform="translate(0 -390.124)" fill="#ff9e18"/>
    </g>
    <g id="Destaque_03" data-name="Destaque 03" transform="translate(841.244 1636)">
      <path id="Caminho_23507" data-name="Caminho 23507" d="M1185.374,705.333c0-186.819-151.447-338.267-338.267-338.267S508.841,518.514,508.841,705.333,660.288,1043.6,847.107,1043.6s338.267-151.448,338.267-338.267" transform="translate(-508.841 -367.066)" fill="#0063b0"/>
      <path id="Caminho_23508" data-name="Caminho 23508" d="M747.46,771.964c-.087.028-.174.059-.26.094a3.286,3.286,0,0,0-1.791,4.288,8.382,8.382,0,0,0,5.606,5.022,7.42,7.42,0,0,0,6.537-1.293c2.468-1.937,3.19-1.073,3.621-.557a12.408,12.408,0,0,0,3,2.659,7.953,7.953,0,0,0,9.927-1.07c.6-.533.973-.618,1.058-.6s.4.183.773.792a3.286,3.286,0,1,0,5.6-3.443,7.325,7.325,0,0,0-11.809-1.643,2.118,2.118,0,0,1-1.343.657,3.911,3.911,0,0,1-2.155-1.56,7.8,7.8,0,0,0-7.234-2.935,11.576,11.576,0,0,0-5.489,2.536.951.951,0,0,1-.8.107,1.843,1.843,0,0,1-1.2-1.163,3.287,3.287,0,0,0-4.028-1.886" transform="translate(-508.841 -511.65)" fill="#ff9e18"/>
      <path id="Caminho_23509" data-name="Caminho 23509" d="M747.3,769.478c-.089.022-.177.048-.266.077a3.286,3.286,0,0,0-2.068,4.161,8.382,8.382,0,0,0,5.264,5.379,7.423,7.423,0,0,0,6.609-.861c2.589-1.772,3.253-.862,3.649-.319a12.4,12.4,0,0,0,2.815,2.85,7.955,7.955,0,0,0,9.976-.417c.629-.493,1.011-.553,1.095-.535s.385.209.719.841a3.286,3.286,0,1,0,5.812-3.068,7.325,7.325,0,0,0-11.676-2.414,2.113,2.113,0,0,1-1.383.567,3.909,3.909,0,0,1-2.049-1.7,7.8,7.8,0,0,0-7.026-3.4,11.584,11.584,0,0,0-5.643,2.171.952.952,0,0,1-.809.055,1.846,1.846,0,0,1-1.123-1.24,3.287,3.287,0,0,0-3.9-2.146" transform="translate(-508.841 -508.19)" fill="#fed925"/>
      <path id="Caminho_23510" data-name="Caminho 23510" d="M574.55,841.618c-.087.028-.174.059-.26.094A3.286,3.286,0,0,0,572.5,846a8.382,8.382,0,0,0,5.606,5.022,7.42,7.42,0,0,0,6.537-1.293c2.468-1.937,3.19-1.073,3.621-.557a12.407,12.407,0,0,0,2.995,2.659,7.953,7.953,0,0,0,9.927-1.07c.6-.533.973-.618,1.058-.6s.4.183.773.792a3.286,3.286,0,1,0,5.6-3.443,7.325,7.325,0,0,0-11.809-1.643,2.118,2.118,0,0,1-1.343.657,3.911,3.911,0,0,1-2.155-1.56,7.8,7.8,0,0,0-7.234-2.935,11.575,11.575,0,0,0-5.489,2.536.951.951,0,0,1-.8.107,1.843,1.843,0,0,1-1.2-1.163,3.287,3.287,0,0,0-4.028-1.886" transform="translate(-508.841 -650.958)" fill="#ff9e18"/>
      <path id="Caminho_23511" data-name="Caminho 23511" d="M574.394,839.132c-.089.022-.177.048-.266.077a3.286,3.286,0,0,0-2.068,4.161,8.381,8.381,0,0,0,5.265,5.379,7.421,7.421,0,0,0,6.608-.861c2.589-1.772,3.253-.862,3.649-.319a12.4,12.4,0,0,0,2.815,2.85,7.954,7.954,0,0,0,9.976-.418c.629-.492,1.011-.552,1.1-.534s.385.209.719.841A3.286,3.286,0,0,0,608,847.24a7.325,7.325,0,0,0-11.676-2.414,2.113,2.113,0,0,1-1.383.567,3.91,3.91,0,0,1-2.049-1.7,7.8,7.8,0,0,0-7.025-3.4,11.585,11.585,0,0,0-5.644,2.171.952.952,0,0,1-.809.055,1.846,1.846,0,0,1-1.123-1.24,3.287,3.287,0,0,0-3.9-2.146" transform="translate(-508.841 -647.498)" fill="#fed925"/>
      <path id="Caminho_23512" data-name="Caminho 23512" d="M636.89,852.287q-.137-.015-.276-.018a3.286,3.286,0,0,0-3.369,3.2,8.387,8.387,0,0,0,3.1,6.856,7.421,7.421,0,0,0,6.5,1.454c3.04-.778,3.352.3,3.538.95a12.416,12.416,0,0,0,1.669,3.642,7.953,7.953,0,0,0,9.515,3.024,1.877,1.877,0,0,1,1.212-.127,1.662,1.662,0,0,1,.388,1.037,3.286,3.286,0,0,0,6.511-.893,7.326,7.326,0,0,0-10.143-6.267,2.114,2.114,0,0,1-1.494.06,3.91,3.91,0,0,1-1.343-2.3,7.8,7.8,0,0,0-5.436-5.6,11.562,11.562,0,0,0-6.045.107.95.95,0,0,1-.779-.226,1.847,1.847,0,0,1-.631-1.55,3.286,3.286,0,0,0-2.925-3.35" transform="translate(-508.841 -683.814)" fill="#ff9e18"/>
      <path id="Caminho_23513" data-name="Caminho 23513" d="M636.355,849.859c-.09-.016-.182-.028-.274-.037a3.286,3.286,0,0,0-3.571,2.974,8.382,8.382,0,0,0,2.648,7.045,7.422,7.422,0,0,0,6.394,1.877c3.084-.576,3.325.523,3.468,1.181a12.443,12.443,0,0,0,1.426,3.742,7.952,7.952,0,0,0,9.3,3.642,1.872,1.872,0,0,1,1.218-.047,1.671,1.671,0,0,1,.319,1.06,3.286,3.286,0,1,0,6.555-.464,7.325,7.325,0,0,0-9.711-6.918,2.115,2.115,0,0,1-1.494-.039,3.91,3.91,0,0,1-1.19-2.38,7.8,7.8,0,0,0-5.056-5.948,11.582,11.582,0,0,0-6.039-.289.953.953,0,0,1-.763-.277,1.845,1.845,0,0,1-.528-1.588,3.285,3.285,0,0,0-2.7-3.534" transform="translate(-508.841 -680.557)" fill="#fed925"/>
      <path id="Caminho_23514" data-name="Caminho 23514" d="M618.78,909.492c-.08.044-.159.092-.236.144a3.285,3.285,0,0,0-.905,4.558,8.38,8.38,0,0,0,6.49,3.81,7.421,7.421,0,0,0,6.151-2.563c2.035-2.388,2.914-1.685,3.439-1.264a12.409,12.409,0,0,0,3.463,2.012,7.952,7.952,0,0,0,9.517-3.018c.479-.64.832-.8.917-.8s.427.1.915.624a3.286,3.286,0,0,0,4.8-4.485,7.325,7.325,0,0,0-11.9.731,2.105,2.105,0,0,1-1.186.91,3.9,3.9,0,0,1-2.421-1.1,7.8,7.8,0,0,0-7.673-1.443,11.578,11.578,0,0,0-4.876,3.575.955.955,0,0,1-.767.265,1.845,1.845,0,0,1-1.409-.9,3.287,3.287,0,0,0-4.322-1.049" transform="translate(-508.841 -780.214)" fill="#ff9e18"/>
      <path id="Caminho_23515" data-name="Caminho 23515" d="M618.82,906.242c-.083.039-.164.082-.245.128a3.286,3.286,0,0,0-1.2,4.489,8.384,8.384,0,0,0,6.226,4.228,7.426,7.426,0,0,0,6.307-2.155c2.187-2.25,3.017-1.49,3.514-1.036a12.4,12.4,0,0,0,3.323,2.235,7.953,7.953,0,0,0,9.7-2.387c.52-.608.882-.742.968-.741s.419.128.872.682a3.286,3.286,0,0,0,5.087-4.16,7.325,7.325,0,0,0-11.923-.051,2.106,2.106,0,0,1-1.243.83,3.9,3.9,0,0,1-2.344-1.257,7.8,7.8,0,0,0-7.561-1.943,11.578,11.578,0,0,0-5.1,3.247.951.951,0,0,1-.782.214,1.842,1.842,0,0,1-1.347-.993,3.288,3.288,0,0,0-4.244-1.33" transform="translate(-508.841 -775.978)" fill="#fed925"/>
      <path id="Caminho_23516" data-name="Caminho 23516" d="M686.543,893.423c-.074.054-.145.112-.215.174a3.285,3.285,0,0,0-.3,4.637,8.386,8.386,0,0,0,6.934,2.927,7.425,7.425,0,0,0,5.762-3.348c1.7-2.634,2.667-2.052,3.243-1.7a12.406,12.406,0,0,0,3.7,1.541,7.954,7.954,0,0,0,9.04-4.239c.39-.7.719-.9.8-.916s.437.043.989.5a3.286,3.286,0,0,0,4.175-5.076,7.326,7.326,0,0,0-11.7,2.285,2.108,2.108,0,0,1-1.057,1.057,3.9,3.9,0,0,1-2.545-.774,7.8,7.8,0,0,0-7.795-.424,11.579,11.579,0,0,0-4.366,4.183.958.958,0,0,1-.726.363,1.847,1.847,0,0,1-1.515-.71,3.285,3.285,0,0,0-4.422-.474" transform="translate(-508.841 -743.504)" fill="#ff9e18"/>
      <path id="Caminho_23517" data-name="Caminho 23517" d="M686.712,890.167c-.077.05-.152.1-.226.159a3.287,3.287,0,0,0-.6,4.608,8.386,8.386,0,0,0,6.728,3.375,7.424,7.424,0,0,0,5.969-2.963c1.873-2.517,2.8-1.872,3.348-1.487a12.4,12.4,0,0,0,3.588,1.78,7.954,7.954,0,0,0,9.3-3.638c.435-.671.777-.851.862-.861s.432.072.954.561a3.285,3.285,0,1,0,4.5-4.79,7.325,7.325,0,0,0-11.826,1.512,2.108,2.108,0,0,1-1.124.986,3.909,3.909,0,0,1-2.489-.939,7.8,7.8,0,0,0-7.75-.935,11.566,11.566,0,0,0-4.631,3.888.955.955,0,0,1-.748.314,1.843,1.843,0,0,1-1.466-.807,3.286,3.286,0,0,0-4.381-.763" transform="translate(-508.841 -739.277)" fill="#fed925"/>
      <path id="Caminho_23518" data-name="Caminho 23518" d="M679.937,928.3c-.091-.012-.182-.021-.276-.026a3.286,3.286,0,0,0-3.453,3.11,8.386,8.386,0,0,0,2.92,6.937,7.422,7.422,0,0,0,6.462,1.628c3.06-.7,3.342.394,3.511,1.045a12.422,12.422,0,0,0,1.57,3.684,7.954,7.954,0,0,0,9.431,3.279,1.883,1.883,0,0,1,1.215-.095,1.663,1.663,0,0,1,.36,1.047,3.286,3.286,0,1,0,6.533-.718,7.325,7.325,0,0,0-9.972-6.536,2.112,2.112,0,0,1-1.495.019,3.908,3.908,0,0,1-1.281-2.331,7.8,7.8,0,0,0-5.283-5.748,11.584,11.584,0,0,0-6.046-.055.953.953,0,0,1-.773-.247,1.844,1.844,0,0,1-.589-1.566,3.286,3.286,0,0,0-2.834-3.427" transform="translate(-508.841 -836.509)" fill="#ff9e18"/>
      <path id="Caminho_23519" data-name="Caminho 23519" d="M679.38,925.93c-.09-.018-.181-.033-.273-.044a3.287,3.287,0,0,0-3.65,2.877,8.382,8.382,0,0,0,2.459,7.113,7.42,7.42,0,0,0,6.341,2.048c3.1-.493,3.31.612,3.435,1.273a12.436,12.436,0,0,0,1.325,3.78,7.958,7.958,0,0,0,9.2,3.89,1.883,1.883,0,0,1,1.219-.015,1.665,1.665,0,0,1,.29,1.068,3.286,3.286,0,0,0,6.566-.288,7.325,7.325,0,0,0-9.522-7.176,2.112,2.112,0,0,1-1.493-.079,3.9,3.9,0,0,1-1.125-2.41,7.8,7.8,0,0,0-4.9-6.082,11.586,11.586,0,0,0-6.03-.451.952.952,0,0,1-.755-.3,1.845,1.845,0,0,1-.484-1.6,3.288,3.288,0,0,0-2.6-3.606" transform="translate(-508.841 -833.325)" fill="#fed925"/>
      <path id="Caminho_23520" data-name="Caminho 23520" d="M700.565,974.824q-.121.063-.24.138a3.285,3.285,0,0,0-1.03,4.531,8.384,8.384,0,0,0,6.384,3.987,7.424,7.424,0,0,0,6.219-2.4c2.1-2.331,2.959-1.6,3.472-1.169a12.4,12.4,0,0,0,3.407,2.106,7.951,7.951,0,0,0,9.6-2.756c.5-.627.853-.775.939-.777s.423.112.9.648a3.286,3.286,0,0,0,4.925-4.351,7.324,7.324,0,0,0-11.916.405,2.115,2.115,0,0,1-1.211.877,3.911,3.911,0,0,1-2.39-1.167,7.8,7.8,0,0,0-7.63-1.652,11.576,11.576,0,0,0-4.973,3.439.954.954,0,0,1-.774.244,1.849,1.849,0,0,1-1.384-.941,3.286,3.286,0,0,0-4.291-1.167" transform="translate(-508.841 -911.826)" fill="#ff9e18"/>
      <path id="Caminho_23521" data-name="Caminho 23521" d="M700.578,971.46c-.084.037-.167.077-.249.122a3.286,3.286,0,0,0-1.324,4.454,8.383,8.383,0,0,0,6.109,4.4,7.42,7.42,0,0,0,6.362-1.981c2.248-2.189,3.058-1.407,3.541-.939a12.432,12.432,0,0,0,3.261,2.325,7.954,7.954,0,0,0,9.757-2.121c.536-.594.9-.718.988-.714s.415.139.852.7a3.286,3.286,0,0,0,5.2-4.019,7.324,7.324,0,0,0-11.917-.377,2.113,2.113,0,0,1-1.265.8,3.906,3.906,0,0,1-2.309-1.322,7.8,7.8,0,0,0-7.505-2.148,11.569,11.569,0,0,0-5.188,3.106.95.95,0,0,1-.788.192,1.842,1.842,0,0,1-1.319-1.029,3.287,3.287,0,0,0-4.206-1.446" transform="translate(-508.841 -907.476)" fill="#fed925"/>
      <path id="Caminho_23522" data-name="Caminho 23522" d="M756.093,993.826c-.091,0-.184,0-.277.007a3.287,3.287,0,0,0-3.061,3.5,8.385,8.385,0,0,0,3.72,6.543,7.423,7.423,0,0,0,6.61.852c2.955-1.053,3.365,0,3.61.622a12.4,12.4,0,0,0,1.995,3.473,7.952,7.952,0,0,0,9.752,2.14,1.889,1.889,0,0,1,1.2-.238,1.669,1.669,0,0,1,.481,1,3.286,3.286,0,0,0,6.4-1.485,7.325,7.325,0,0,0-10.675-5.311,2.11,2.11,0,0,1-1.482.2,3.9,3.9,0,0,1-1.548-2.164,7.8,7.8,0,0,0-5.926-5.082,11.588,11.588,0,0,0-6.011.661.951.951,0,0,1-.8-.154,1.843,1.843,0,0,1-.77-1.485,3.286,3.286,0,0,0-3.22-3.068" transform="translate(-508.841 -964.486)" fill="#ff9e18"/>
      <path id="Caminho_23523" data-name="Caminho 23523" d="M755.636,991.215c-.091-.008-.183-.011-.277-.011a3.286,3.286,0,0,0-3.283,3.288,8.384,8.384,0,0,0,3.283,6.773,7.424,7.424,0,0,0,6.539,1.283c3.018-.857,3.359.216,3.562.857a12.4,12.4,0,0,0,1.763,3.6,7.953,7.953,0,0,0,9.591,2.774,1.873,1.873,0,0,1,1.208-.158,1.66,1.66,0,0,1,.415,1.026,3.286,3.286,0,0,0,6.485-1.063,7.324,7.324,0,0,0-10.3-6,2.114,2.114,0,0,1-1.492.1,3.912,3.912,0,0,1-1.4-2.26,7.8,7.8,0,0,0-5.58-5.46,11.574,11.574,0,0,0-6.04.266.953.953,0,0,1-.785-.206,1.844,1.844,0,0,1-.671-1.533,3.287,3.287,0,0,0-3.012-3.272" transform="translate(-508.841 -961.003)" fill="#fed925"/>
      <path id="Caminho_23524" data-name="Caminho 23524" d="M749.08,926.7c-.091.007-.183.018-.275.033a3.285,3.285,0,0,0-2.719,3.768,8.383,8.383,0,0,0,4.317,6.165,7.419,7.419,0,0,0,6.66.228c2.844-1.325,3.35-.32,3.653.281a12.39,12.39,0,0,0,2.312,3.27,7.953,7.953,0,0,0,9.91,1.216,1.88,1.88,0,0,1,1.168-.349c.076.03.346.269.572.947a3.286,3.286,0,1,0,6.235-2.079,7.325,7.325,0,0,0-11.127-4.286,2.106,2.106,0,0,1-1.456.334,3.906,3.906,0,0,1-1.745-2.009,7.8,7.8,0,0,0-6.376-4.5,11.586,11.586,0,0,0-5.922,1.222.953.953,0,0,1-.808-.078,1.845,1.845,0,0,1-.906-1.407,3.286,3.286,0,0,0-3.493-2.752" transform="translate(-508.841 -827.593)" fill="#ff9e18"/>
      <path id="Caminho_23525" data-name="Caminho 23525" d="M748.708,923.926q-.14,0-.276.015a3.286,3.286,0,0,0-2.962,3.582,8.383,8.383,0,0,0,3.905,6.434,7.417,7.417,0,0,0,6.63.664c2.925-1.136,3.365-.1,3.626.52a12.438,12.438,0,0,0,2.093,3.415,7.953,7.953,0,0,0,9.81,1.863,1.88,1.88,0,0,1,1.187-.272c.074.035.328.291.509.983a3.286,3.286,0,0,0,6.357-1.666,7.323,7.323,0,0,0-10.821-5.006,2.108,2.108,0,0,1-1.476.237,3.9,3.9,0,0,1-1.608-2.118,7.8,7.8,0,0,0-6.067-4.912,11.576,11.576,0,0,0-5.99.831.956.956,0,0,1-.8-.132,1.84,1.84,0,0,1-.811-1.463,3.286,3.286,0,0,0-3.3-2.975" transform="translate(-508.841 -823.909)" fill="#fed925"/>
      <path id="Caminho_23526" data-name="Caminho 23526" d="M740.718,823.266c-.089-.022-.179-.04-.271-.054a3.286,3.286,0,0,0-3.756,2.736,8.384,8.384,0,0,0,2.187,7.2,7.423,7.423,0,0,0,6.26,2.286c3.115-.376,3.283.737,3.384,1.4a12.41,12.41,0,0,0,1.181,3.827,7.956,7.956,0,0,0,9.042,4.236,1.873,1.873,0,0,1,1.218.031,1.657,1.657,0,0,1,.25,1.078,3.286,3.286,0,1,0,6.572-.039,7.325,7.325,0,0,0-9.243-7.531,2.111,2.111,0,0,1-1.489-.136,3.9,3.9,0,0,1-1.033-2.451,7.8,7.8,0,0,0-4.661-6.262,11.574,11.574,0,0,0-6.009-.679.953.953,0,0,1-.743-.326,1.845,1.845,0,0,1-.424-1.618,3.286,3.286,0,0,0-2.465-3.7" transform="translate(-508.841 -628.849)" fill="#ff9e18"/>
      <path id="Caminho_23527" data-name="Caminho 23527" d="M740.08,821.129q-.131-.04-.267-.072a3.286,3.286,0,0,0-3.927,2.485,8.383,8.383,0,0,0,1.71,7.329,7.426,7.426,0,0,0,6.1,2.692c3.133-.171,3.229.951,3.286,1.621a12.383,12.383,0,0,0,.927,3.9,7.955,7.955,0,0,0,8.745,4.819,1.879,1.879,0,0,1,1.214.111,1.663,1.663,0,0,1,.178,1.092,3.286,3.286,0,1,0,6.56.392,7.324,7.324,0,0,0-8.729-8.121,2.108,2.108,0,0,1-1.477-.233,3.9,3.9,0,0,1-.87-2.513,7.8,7.8,0,0,0-4.241-6.555A11.582,11.582,0,0,0,743.334,827a.952.952,0,0,1-.72-.374,1.847,1.847,0,0,1-.317-1.643,3.287,3.287,0,0,0-2.217-3.855" transform="translate(-508.841 -625.961)" fill="#fed925"/>
      <path id="Caminho_23528" data-name="Caminho 23528" d="M777.568,882.074c-.074.054-.146.112-.216.173a3.285,3.285,0,0,0-.32,4.636,8.384,8.384,0,0,0,6.921,2.957,7.423,7.423,0,0,0,5.776-3.322c1.716-2.627,2.677-2.041,3.251-1.69a12.425,12.425,0,0,0,3.69,1.557,7.955,7.955,0,0,0,9.059-4.2c.393-.7.723-.9.807-.913s.436.046.987.5a3.286,3.286,0,1,0,4.2-5.057,7.325,7.325,0,0,0-11.712,2.233A2.117,2.117,0,0,1,798.946,880a3.907,3.907,0,0,1-2.541-.786,7.8,7.8,0,0,0-7.793-.459,11.586,11.586,0,0,0-4.385,4.164.953.953,0,0,1-.727.36,1.846,1.846,0,0,1-1.512-.717,3.287,3.287,0,0,0-4.42-.493" transform="translate(-508.841 -720.959)" fill="#ff9e18"/>
      <path id="Caminho_23529" data-name="Caminho 23529" d="M777.733,878.817c-.077.049-.153.1-.227.158a3.286,3.286,0,0,0-.624,4.6,8.384,8.384,0,0,0,6.713,3.405,7.422,7.422,0,0,0,5.982-2.937c1.884-2.508,2.8-1.86,3.354-1.473a12.407,12.407,0,0,0,3.58,1.8,7.954,7.954,0,0,0,9.315-3.6c.438-.669.78-.848.865-.858s.432.074.952.566a3.286,3.286,0,1,0,4.519-4.771,7.325,7.325,0,0,0-11.833,1.461,2.117,2.117,0,0,1-1.128.981,3.912,3.912,0,0,1-2.485-.951,7.8,7.8,0,0,0-7.746-.968,11.572,11.572,0,0,0-4.648,3.867.953.953,0,0,1-.749.311,1.844,1.844,0,0,1-1.462-.814,3.286,3.286,0,0,0-4.378-.782" transform="translate(-508.841 -716.73)" fill="#fed925"/>
      <path id="Caminho_23530" data-name="Caminho 23530" d="M779.113,715.075c-.087.028-.174.059-.26.094a3.286,3.286,0,0,0-1.791,4.288,8.382,8.382,0,0,0,5.606,5.022,7.42,7.42,0,0,0,6.537-1.293c2.468-1.937,3.19-1.073,3.621-.557a12.408,12.408,0,0,0,2.995,2.659,7.953,7.953,0,0,0,9.927-1.07c.6-.533.973-.618,1.058-.6s.4.183.773.792a3.286,3.286,0,1,0,5.6-3.443,7.325,7.325,0,0,0-11.809-1.643,2.118,2.118,0,0,1-1.343.657,3.911,3.911,0,0,1-2.155-1.56,7.8,7.8,0,0,0-7.234-2.935,11.576,11.576,0,0,0-5.489,2.536.951.951,0,0,1-.8.107,1.842,1.842,0,0,1-1.2-1.163,3.287,3.287,0,0,0-4.028-1.886" transform="translate(-508.841 -397.872)" fill="#ff9e18"/>
      <path id="Caminho_23531" data-name="Caminho 23531" d="M778.957,712.59c-.089.022-.177.048-.266.077a3.286,3.286,0,0,0-2.068,4.161,8.382,8.382,0,0,0,5.264,5.379,7.423,7.423,0,0,0,6.609-.861c2.589-1.772,3.253-.862,3.649-.319a12.4,12.4,0,0,0,2.815,2.85,7.954,7.954,0,0,0,9.976-.418c.629-.492,1.011-.552,1.1-.534s.385.209.719.841a3.286,3.286,0,1,0,5.812-3.068,7.325,7.325,0,0,0-11.676-2.414,2.113,2.113,0,0,1-1.383.567,3.91,3.91,0,0,1-2.049-1.7,7.8,7.8,0,0,0-7.026-3.4,11.584,11.584,0,0,0-5.643,2.171.952.952,0,0,1-.809.055,1.846,1.846,0,0,1-1.123-1.24,3.287,3.287,0,0,0-3.9-2.146" transform="translate(-508.841 -394.414)" fill="#fed925"/>
      <path id="Caminho_23532" data-name="Caminho 23532" d="M772.052,580.036c-.088.028-.174.059-.26.094A3.285,3.285,0,0,0,770,584.418a8.384,8.384,0,0,0,5.607,5.022,7.419,7.419,0,0,0,6.536-1.293c2.469-1.937,3.19-1.073,3.621-.557a12.426,12.426,0,0,0,2.995,2.659,7.953,7.953,0,0,0,9.927-1.07c.6-.533.973-.618,1.059-.6s.4.183.772.792a3.286,3.286,0,1,0,5.6-3.443,7.325,7.325,0,0,0-11.809-1.643,2.116,2.116,0,0,1-1.342.657,3.913,3.913,0,0,1-2.156-1.56,7.8,7.8,0,0,0-7.234-2.935,11.573,11.573,0,0,0-5.488,2.536.953.953,0,0,1-.8.107,1.842,1.842,0,0,1-1.2-1.163,3.286,3.286,0,0,0-4.027-1.886" transform="translate(-508.841 -127.795)" fill="#ff9e18"/>
      <path id="Caminho_23533" data-name="Caminho 23533" d="M771.9,577.551c-.089.022-.177.048-.266.077a3.286,3.286,0,0,0-2.068,4.161,8.382,8.382,0,0,0,5.264,5.379,7.423,7.423,0,0,0,6.609-.861c2.589-1.772,3.253-.862,3.649-.319a12.4,12.4,0,0,0,2.815,2.85,7.954,7.954,0,0,0,9.976-.418c.629-.492,1.011-.552,1.095-.534s.385.209.719.841a3.286,3.286,0,1,0,5.812-3.068,7.325,7.325,0,0,0-11.676-2.414,2.113,2.113,0,0,1-1.383.567,3.91,3.91,0,0,1-2.049-1.7,7.8,7.8,0,0,0-7.026-3.4,11.584,11.584,0,0,0-5.643,2.171.952.952,0,0,1-.809.055,1.846,1.846,0,0,1-1.123-1.24,3.287,3.287,0,0,0-3.9-2.146" transform="translate(-508.841 -124.337)" fill="#fed925"/>
      <path id="Caminho_23534" data-name="Caminho 23534" d="M660.157,529.4c-.091,0-.184.005-.276.013a3.286,3.286,0,0,0-2.982,3.565,8.382,8.382,0,0,0,3.866,6.457,7.42,7.42,0,0,0,6.627.7c2.931-1.119,3.364-.08,3.623.541a12.408,12.408,0,0,0,2.073,3.427,7.951,7.951,0,0,0,9.8,1.92,1.88,1.88,0,0,1,1.19-.264c.074.035.326.292.5.985a3.286,3.286,0,0,0,6.367-1.629,7.325,7.325,0,0,0-10.792-5.069,2.114,2.114,0,0,1-1.477.229,3.906,3.906,0,0,1-1.6-2.128,7.8,7.8,0,0,0-6.039-4.948,11.586,11.586,0,0,0-5.994.8.951.951,0,0,1-.8-.136,1.841,1.841,0,0,1-.8-1.467,3.287,3.287,0,0,0-3.288-3" transform="translate(-508.841 -35.01)" fill="#ff9e18"/>
      <path id="Caminho_23535" data-name="Caminho 23535" d="M659.72,526.743c-.091-.005-.184-.007-.277-.005a3.285,3.285,0,0,0-3.208,3.361,8.382,8.382,0,0,0,3.434,6.7,7.418,7.418,0,0,0,6.566,1.136c3-.924,3.363.141,3.58.778a12.412,12.412,0,0,0,1.844,3.555,7.952,7.952,0,0,0,9.651,2.558,1.873,1.873,0,0,1,1.2-.185,1.655,1.655,0,0,1,.438,1.016,3.286,3.286,0,0,0,6.46-1.208,7.325,7.325,0,0,0-10.436-5.766,2.111,2.111,0,0,1-1.489.132,3.9,3.9,0,0,1-1.453-2.228,7.8,7.8,0,0,0-5.7-5.333,11.572,11.572,0,0,0-6.033.4.952.952,0,0,1-.789-.188,1.844,1.844,0,0,1-.705-1.517,3.287,3.287,0,0,0-3.085-3.2" transform="translate(-508.841 -31.474)" fill="#fed925"/>
      <path id="Caminho_23536" data-name="Caminho 23536" d="M674.408,827.2c-.064.065-.126.133-.186.2a3.286,3.286,0,0,0,.414,4.628,8.385,8.385,0,0,0,7.3,1.83,7.424,7.424,0,0,0,5.181-4.191c1.28-2.865,2.321-2.437,2.943-2.181a12.443,12.443,0,0,0,3.89.956,7.954,7.954,0,0,0,8.283-5.575c.279-.749.573-1,.654-1.028a1.664,1.664,0,0,1,1.053.341,3.286,3.286,0,1,0,3.348-5.656,7.325,7.325,0,0,0-11.214,4.051,2.105,2.105,0,0,1-.882,1.207,3.9,3.9,0,0,1-2.634-.375,7.8,7.8,0,0,0-7.768.775,11.578,11.578,0,0,0-3.673,4.8.955.955,0,0,1-.662.47,1.845,1.845,0,0,1-1.606-.469,3.286,3.286,0,0,0-4.442.209" transform="translate(-508.841 -605.726)" fill="#ff9e18"/>
      <path id="Caminho_23537" data-name="Caminho 23537" d="M674.724,824c-.068.061-.135.125-.2.192a3.286,3.286,0,0,0,.11,4.646,8.386,8.386,0,0,0,7.165,2.3,7.421,7.421,0,0,0,5.444-3.843c1.466-2.774,2.477-2.279,3.081-1.983a12.428,12.428,0,0,0,3.818,1.21,7.956,7.956,0,0,0,8.631-5.02c.328-.729.637-.96.72-.983a1.662,1.662,0,0,1,1.029.409,3.286,3.286,0,0,0,3.711-5.424,7.325,7.325,0,0,0-11.455,3.307,2.115,2.115,0,0,1-.96,1.147,3.908,3.908,0,0,1-2.6-.547,7.8,7.8,0,0,0-7.8.264,11.58,11.58,0,0,0-3.981,4.551.953.953,0,0,1-.691.426,1.844,1.844,0,0,1-1.571-.574,3.287,3.287,0,0,0-4.447-.082" transform="translate(-508.841 -601.599)" fill="#fed925"/>
      <path id="Caminho_23538" data-name="Caminho 23538" d="M537.7,757.909c-.087.028-.174.059-.26.094a3.286,3.286,0,0,0-1.791,4.288,8.382,8.382,0,0,0,5.606,5.022,7.42,7.42,0,0,0,6.537-1.293c2.468-1.937,3.19-1.073,3.621-.557a12.407,12.407,0,0,0,2.995,2.659,7.953,7.953,0,0,0,9.927-1.07c.6-.533.973-.618,1.058-.6s.4.183.773.792a3.286,3.286,0,1,0,5.6-3.443,7.325,7.325,0,0,0-11.809-1.643,2.118,2.118,0,0,1-1.343.657,3.911,3.911,0,0,1-2.155-1.56,7.8,7.8,0,0,0-7.234-2.935,11.576,11.576,0,0,0-5.489,2.536.951.951,0,0,1-.8.107,1.842,1.842,0,0,1-1.2-1.163,3.287,3.287,0,0,0-4.028-1.886" transform="translate(-508.841 -483.541)" fill="#ff9e18"/>
      <path id="Caminho_23539" data-name="Caminho 23539" d="M537.544,755.423c-.089.022-.177.048-.266.077a3.286,3.286,0,0,0-2.068,4.161,8.381,8.381,0,0,0,5.265,5.379,7.421,7.421,0,0,0,6.608-.861c2.589-1.772,3.253-.862,3.649-.319a12.4,12.4,0,0,0,2.815,2.85,7.956,7.956,0,0,0,9.976-.417c.629-.493,1.011-.553,1.095-.535s.385.209.719.841a3.286,3.286,0,1,0,5.812-3.068,7.325,7.325,0,0,0-11.676-2.414,2.114,2.114,0,0,1-1.383.567,3.91,3.91,0,0,1-2.049-1.7,7.8,7.8,0,0,0-7.026-3.4,11.584,11.584,0,0,0-5.643,2.171.952.952,0,0,1-.809.055,1.846,1.846,0,0,1-1.123-1.24,3.287,3.287,0,0,0-3.9-2.146" transform="translate(-508.841 -480.08)" fill="#fed925"/>
      <path id="Caminho_23540" data-name="Caminho 23540" d="M606.568,726.658c-.081.043-.16.09-.239.14a3.286,3.286,0,0,0-.984,4.542,8.386,8.386,0,0,0,6.423,3.922,7.424,7.424,0,0,0,6.2-2.456c2.076-2.353,2.943-1.634,3.46-1.205a12.4,12.4,0,0,0,3.428,2.072,7.952,7.952,0,0,0,9.568-2.852c.49-.632.845-.783.931-.787s.425.108.9.64a3.286,3.286,0,1,0,4.881-4.4,7.325,7.325,0,0,0-11.912.525,2.113,2.113,0,0,1-1.2.889,3.9,3.9,0,0,1-2.4-1.143,7.8,7.8,0,0,0-7.646-1.576,11.57,11.57,0,0,0-4.938,3.49.954.954,0,0,1-.772.251,1.846,1.846,0,0,1-1.393-.927,3.287,3.287,0,0,0-4.3-1.124" transform="translate(-508.841 -415.146)" fill="#ff9e18"/>
      <path id="Caminho_23541" data-name="Caminho 23541" d="M606.591,723.413c-.083.038-.166.079-.247.124a3.286,3.286,0,0,0-1.28,4.467,8.383,8.383,0,0,0,6.152,4.335,7.422,7.422,0,0,0,6.343-2.045c2.225-2.211,3.043-1.437,3.531-.974a12.434,12.434,0,0,0,3.285,2.292,7.955,7.955,0,0,0,9.735-2.219c.53-.6.894-.726.98-.724s.417.136.86.7a3.286,3.286,0,0,0,5.159-4.071,7.325,7.325,0,0,0-11.92-.257,2.118,2.118,0,0,1-1.258.808,3.906,3.906,0,0,1-2.322-1.3,7.8,7.8,0,0,0-7.526-2.073,11.562,11.562,0,0,0-5.156,3.158.955.955,0,0,1-.787.2,1.846,1.846,0,0,1-1.329-1.016,3.286,3.286,0,0,0-4.22-1.4" transform="translate(-508.841 -410.918)" fill="#fed925"/>
      <path id="Caminho_23542" data-name="Caminho 23542" d="M687.777,765.989c-.044.08-.085.163-.122.248a3.286,3.286,0,0,0,1.679,4.333,8.38,8.38,0,0,0,7.521-.262,7.421,7.421,0,0,0,3.819-5.461c.438-3.107,1.557-2.984,2.226-2.91a12.427,12.427,0,0,0,4-.158,7.954,7.954,0,0,0,6.417-7.649,1.88,1.88,0,0,1,.344-1.169,1.661,1.661,0,0,1,1.106.036,3.286,3.286,0,0,0,1.652-6.361,7.325,7.325,0,0,0-9.655,7,2.11,2.11,0,0,1-.513,1.4,3.909,3.909,0,0,1-2.635.368,7.8,7.8,0,0,0-7.25,2.9,11.568,11.568,0,0,0-2.2,5.631.957.957,0,0,1-.506.635,1.842,1.842,0,0,1-1.673-.007,3.287,3.287,0,0,0-4.211,1.431" transform="translate(-508.841 -474.057)" fill="#ff9e18"/>
      <path id="Caminho_23543" data-name="Caminho 23543" d="M688.339,763.091q-.074.115-.138.24a3.287,3.287,0,0,0,1.391,4.434,8.385,8.385,0,0,0,7.523.231,7.424,7.424,0,0,0,4.169-5.2c.64-3.072,1.748-2.875,2.411-2.758a12.433,12.433,0,0,0,4,.1,7.955,7.955,0,0,0,6.905-7.212,1.876,1.876,0,0,1,.419-1.144,1.666,1.666,0,0,1,1.1.108,3.286,3.286,0,1,0,2.065-6.239,7.326,7.326,0,0,0-10.093,6.348,2.11,2.11,0,0,1-.6,1.368,3.909,3.909,0,0,1-2.653.2,7.8,7.8,0,0,0-7.425,2.412,11.579,11.579,0,0,0-2.565,5.476.956.956,0,0,1-.546.6,1.844,1.844,0,0,1-1.669-.116,3.285,3.285,0,0,0-4.3,1.151" transform="translate(-508.841 -470.349)" fill="#fed925"/>
      <path id="Caminho_23544" data-name="Caminho 23544" d="M733.412,689.963c-.053.074-.1.151-.152.231a3.285,3.285,0,0,0,1.124,4.509,8.385,8.385,0,0,0,7.5.68,7.424,7.424,0,0,0,4.472-4.941c.822-3.028,1.917-2.766,2.571-2.61a12.387,12.387,0,0,0,3.991.344,7.951,7.951,0,0,0,7.323-6.787c.16-.783.411-1.076.487-1.117a1.665,1.665,0,0,1,1.093.174,3.286,3.286,0,0,0,2.434-6.105,7.324,7.324,0,0,0-10.453,5.735,2.112,2.112,0,0,1-.685,1.328,3.9,3.9,0,0,1-2.66.037,7.8,7.8,0,0,0-7.556,1.966,11.573,11.573,0,0,0-2.887,5.312.955.955,0,0,1-.581.566,1.842,1.842,0,0,1-1.659-.215,3.286,3.286,0,0,0-4.357.893" transform="translate(-508.841 -326.041)" fill="#ff9e18"/>
      <path id="Caminho_23545" data-name="Caminho 23545" d="M733.868,686.905c-.058.071-.114.144-.167.221a3.286,3.286,0,0,0,.826,4.573,8.384,8.384,0,0,0,7.435,1.169,7.421,7.421,0,0,0,4.786-4.637c1.019-2.968,2.094-2.634,2.737-2.435a12.423,12.423,0,0,0,3.959.6,7.955,7.955,0,0,0,7.752-6.293c.211-.771.481-1.047.559-1.083a1.674,1.674,0,0,1,1.08.245,3.286,3.286,0,1,0,2.829-5.931,7.324,7.324,0,0,0-10.807,5.037,2.11,2.11,0,0,1-.771,1.28,3.9,3.9,0,0,1-2.656-.138,7.8,7.8,0,0,0-7.668,1.466,11.589,11.589,0,0,0-3.23,5.112.949.949,0,0,1-.617.527,1.84,1.84,0,0,1-1.641-.324,3.286,3.286,0,0,0-4.406.606" transform="translate(-508.841 -322.108)" fill="#fed925"/>
      <path id="Caminho_23546" data-name="Caminho 23546" d="M693.071,701.706c-.09-.015-.182-.025-.275-.033a3.286,3.286,0,0,0-3.528,3.024,8.382,8.382,0,0,0,2.748,7.007,7.425,7.425,0,0,0,6.42,1.786c3.076-.621,3.332.476,3.485,1.131a12.409,12.409,0,0,0,1.479,3.722,7.955,7.955,0,0,0,9.348,3.509,1.883,1.883,0,0,1,1.217-.065,1.675,1.675,0,0,1,.334,1.056,3.286,3.286,0,0,0,6.548-.557,7.325,7.325,0,0,0-9.808-6.78,2.115,2.115,0,0,1-1.495-.017,3.908,3.908,0,0,1-1.223-2.363,7.8,7.8,0,0,0-5.141-5.875,11.569,11.569,0,0,0-6.043-.2.956.956,0,0,1-.767-.266,1.845,1.845,0,0,1-.55-1.58,3.286,3.286,0,0,0-2.749-3.5" transform="translate(-508.841 -383.913)" fill="#ff9e18"/>
      <path id="Caminho_23547" data-name="Caminho 23547" d="M692.494,699.386c-.089-.02-.18-.037-.272-.051a3.286,3.286,0,0,0-3.719,2.787,8.383,8.383,0,0,0,2.283,7.171,7.423,7.423,0,0,0,6.289,2.2c3.11-.417,3.294.694,3.4,1.357a12.422,12.422,0,0,0,1.232,3.811,7.954,7.954,0,0,0,9.1,4.115,1.875,1.875,0,0,1,1.218.015,1.66,1.66,0,0,1,.264,1.075,3.286,3.286,0,0,0,6.571-.127,7.325,7.325,0,0,0-9.343-7.407,2.115,2.115,0,0,1-1.49-.116,3.905,3.905,0,0,1-1.066-2.437,7.8,7.8,0,0,0-4.744-6.2,11.571,11.571,0,0,0-6.017-.6.952.952,0,0,1-.747-.316,1.845,1.845,0,0,1-.446-1.613,3.285,3.285,0,0,0-2.514-3.668" transform="translate(-508.841 -380.793)" fill="#fed925"/>
      <path id="Caminho_23548" data-name="Caminho 23548" d="M645.976,671.712c-.091.006-.183.016-.275.03a3.285,3.285,0,0,0-2.763,3.736,8.385,8.385,0,0,0,4.244,6.215,7.425,7.425,0,0,0,6.658.3c2.859-1.292,3.353-.28,3.649.324a12.419,12.419,0,0,0,2.273,3.3,7.954,7.954,0,0,0,9.9,1.331,1.882,1.882,0,0,1,1.171-.335c.077.031.344.273.562.954a3.286,3.286,0,1,0,6.258-2.006,7.325,7.325,0,0,0-11.075-4.416,2.112,2.112,0,0,1-1.461.317,3.908,3.908,0,0,1-1.721-2.029,7.8,7.8,0,0,0-6.323-4.578,11.584,11.584,0,0,0-5.936,1.153.953.953,0,0,1-.806-.088,1.845,1.845,0,0,1-.89-1.417,3.286,3.286,0,0,0-3.461-2.793" transform="translate(-508.841 -317.959)" fill="#ff9e18"/>
      <path id="Caminho_23549" data-name="Caminho 23549" d="M645.593,668.958c-.091,0-.184,0-.276.012a3.286,3.286,0,0,0-3,3.547,8.388,8.388,0,0,0,3.828,6.48,7.424,7.424,0,0,0,6.623.741c2.938-1.1,3.365-.06,3.62.562a12.427,12.427,0,0,0,2.053,3.439,7.954,7.954,0,0,0,9.787,1.977,1.873,1.873,0,0,1,1.191-.257c.074.036.324.294.5.988a3.286,3.286,0,1,0,6.376-1.592,7.326,7.326,0,0,0-10.762-5.132,2.116,2.116,0,0,1-1.479.221,3.9,3.9,0,0,1-1.583-2.138,7.8,7.8,0,0,0-6.01-4.982,11.576,11.576,0,0,0-6,.761.956.956,0,0,1-.8-.141,1.843,1.843,0,0,1-.794-1.472,3.287,3.287,0,0,0-3.271-3.014" transform="translate(-508.841 -314.297)" fill="#fed925"/>
      <path id="Caminho_23550" data-name="Caminho 23550" d="M553.95,704.459c-.091.011-.182.025-.273.045a3.284,3.284,0,0,0-2.554,3.881,8.381,8.381,0,0,0,4.579,5.974,7.424,7.424,0,0,0,6.664-.06c2.784-1.447,3.333-.464,3.661.123a12.42,12.42,0,0,0,2.451,3.168,7.954,7.954,0,0,0,9.954.786,1.875,1.875,0,0,1,1.151-.4c.078.026.358.253.613.921a3.286,3.286,0,0,0,6.139-2.346,7.326,7.326,0,0,0-11.3-3.8,2.111,2.111,0,0,1-1.441.4,3.9,3.9,0,0,1-1.829-1.931,7.8,7.8,0,0,0-6.566-4.225,11.576,11.576,0,0,0-5.863,1.477.952.952,0,0,1-.81-.044,1.844,1.844,0,0,1-.966-1.366,3.287,3.287,0,0,0-3.609-2.6" transform="translate(-508.841 -381.848)" fill="#ff9e18"/>
      <path id="Caminho_23551" data-name="Caminho 23551" d="M553.617,701.62c-.091.005-.183.014-.275.027a3.286,3.286,0,0,0-2.8,3.706,8.386,8.386,0,0,0,4.178,6.26,7.422,7.422,0,0,0,6.653.378c2.873-1.262,3.357-.245,3.646.362a12.412,12.412,0,0,0,2.238,3.322,7.953,7.953,0,0,0,9.88,1.437,1.885,1.885,0,0,1,1.176-.322c.075.032.34.276.551.96a3.286,3.286,0,0,0,6.279-1.939,7.326,7.326,0,0,0-11.027-4.535,2.107,2.107,0,0,1-1.464.3,3.906,3.906,0,0,1-1.7-2.047,7.8,7.8,0,0,0-6.274-4.646,11.58,11.58,0,0,0-5.947,1.089.956.956,0,0,1-.806-.1,1.847,1.847,0,0,1-.874-1.427,3.287,3.287,0,0,0-3.431-2.83" transform="translate(-508.841 -378.082)" fill="#fed925"/>
      <path id="Caminho_23552" data-name="Caminho 23552" d="M533.794,643.774c-.087.028-.174.059-.26.094a3.286,3.286,0,0,0-1.791,4.288,8.382,8.382,0,0,0,5.606,5.022,7.423,7.423,0,0,0,6.537-1.293c2.468-1.937,3.19-1.073,3.621-.557a12.407,12.407,0,0,0,2.995,2.659,7.953,7.953,0,0,0,9.927-1.07c.6-.533.973-.618,1.058-.6s.4.183.773.792a3.286,3.286,0,1,0,5.6-3.443,7.325,7.325,0,0,0-11.809-1.643,2.118,2.118,0,0,1-1.343.657,3.911,3.911,0,0,1-2.155-1.56,7.8,7.8,0,0,0-7.234-2.935,11.576,11.576,0,0,0-5.489,2.536.951.951,0,0,1-.8.107,1.843,1.843,0,0,1-1.2-1.163,3.287,3.287,0,0,0-4.028-1.886" transform="translate(-508.841 -255.27)" fill="#ff9e18"/>
      <path id="Caminho_23553" data-name="Caminho 23553" d="M533.639,641.288c-.089.022-.177.048-.266.077a3.286,3.286,0,0,0-2.068,4.161,8.382,8.382,0,0,0,5.264,5.379,7.423,7.423,0,0,0,6.609-.861c2.589-1.772,3.253-.862,3.649-.319a12.4,12.4,0,0,0,2.815,2.85,7.955,7.955,0,0,0,9.976-.417c.629-.493,1.011-.553,1.1-.535s.385.209.719.841a3.286,3.286,0,1,0,5.812-3.068,7.325,7.325,0,0,0-11.676-2.414,2.113,2.113,0,0,1-1.383.567,3.91,3.91,0,0,1-2.049-1.7,7.8,7.8,0,0,0-7.026-3.4,11.584,11.584,0,0,0-5.643,2.171.952.952,0,0,1-.809.055,1.846,1.846,0,0,1-1.123-1.24,3.287,3.287,0,0,0-3.9-2.146" transform="translate(-508.841 -251.81)" fill="#fed925"/>
      <path id="Caminho_23554" data-name="Caminho 23554" d="M602.771,643.823q-.137.016-.273.045a3.284,3.284,0,0,0-2.555,3.881,8.38,8.38,0,0,0,4.577,5.974,7.421,7.421,0,0,0,6.664-.058c2.784-1.446,3.333-.463,3.661.124a12.4,12.4,0,0,0,2.45,3.169,7.954,7.954,0,0,0,9.953.789,1.879,1.879,0,0,1,1.152-.4c.078.027.358.254.613.922a3.286,3.286,0,0,0,6.139-2.345,7.325,7.325,0,0,0-11.3-3.805,2.109,2.109,0,0,1-1.442.4,3.9,3.9,0,0,1-1.828-1.932,7.8,7.8,0,0,0-6.564-4.226,11.575,11.575,0,0,0-5.864,1.474.953.953,0,0,1-.81-.044,1.842,1.842,0,0,1-.966-1.366,3.286,3.286,0,0,0-3.608-2.6" transform="translate(-508.841 -260.586)" fill="#ff9e18"/>
      <path id="Caminho_23555" data-name="Caminho 23555" d="M602.438,640.984c-.091.005-.183.014-.275.027a3.285,3.285,0,0,0-2.805,3.7,8.387,8.387,0,0,0,4.176,6.262,7.425,7.425,0,0,0,6.653.379c2.874-1.261,3.357-.244,3.646.364a12.4,12.4,0,0,0,2.237,3.322,7.954,7.954,0,0,0,9.88,1.44,1.883,1.883,0,0,1,1.175-.322c.076.032.34.277.551.96a3.286,3.286,0,0,0,6.28-1.937,7.325,7.325,0,0,0-11.026-4.538,2.107,2.107,0,0,1-1.464.3,3.9,3.9,0,0,1-1.7-2.048,7.8,7.8,0,0,0-6.273-4.647,11.573,11.573,0,0,0-5.948,1.087.953.953,0,0,1-.8-.1,1.842,1.842,0,0,1-.874-1.427,3.286,3.286,0,0,0-3.43-2.831" transform="translate(-508.841 -256.818)" fill="#fed925"/>
      <path id="Caminho_23556" data-name="Caminho 23556" d="M746,623.156c-.061.068-.12.139-.176.213a3.286,3.286,0,0,0,.632,4.6,8.383,8.383,0,0,0,7.379,1.483,7.422,7.422,0,0,0,4.977-4.431c1.144-2.922,2.2-2.543,2.838-2.317a12.4,12.4,0,0,0,3.93.771,7.954,7.954,0,0,0,8.011-5.959c.243-.762.525-1.026.6-1.058a1.662,1.662,0,0,1,1.068.29,3.286,3.286,0,0,0,3.077-5.807,7.326,7.326,0,0,0-11.01,4.576,2.114,2.114,0,0,1-.824,1.247,3.908,3.908,0,0,1-2.649-.25,7.8,7.8,0,0,0-7.723,1.141,11.572,11.572,0,0,0-3.442,4.971.957.957,0,0,1-.639.5,1.846,1.846,0,0,1-1.626-.393,3.287,3.287,0,0,0-4.428.419" transform="translate(-508.841 -196.037)" fill="#ff9e18"/>
      <path id="Caminho_23557" data-name="Caminho 23557" d="M746.357,620c-.065.064-.129.131-.19.2a3.287,3.287,0,0,0,.329,4.636,8.386,8.386,0,0,0,7.266,1.963,7.422,7.422,0,0,0,5.257-4.1c1.333-2.841,2.366-2.394,2.983-2.126a12.416,12.416,0,0,0,3.872,1.027,7.952,7.952,0,0,0,8.384-5.421c.293-.744.591-.989.673-1.016a1.663,1.663,0,0,1,1.047.36,3.286,3.286,0,0,0,3.451-5.593,7.325,7.325,0,0,0-11.287,3.844,2.107,2.107,0,0,1-.9,1.19,3.9,3.9,0,0,1-2.626-.423,7.8,7.8,0,0,0-7.781.632,11.574,11.574,0,0,0-3.761,4.734.953.953,0,0,1-.67.458,1.846,1.846,0,0,1-1.6-.5,3.286,3.286,0,0,0-4.445.128" transform="translate(-508.841 -191.962)" fill="#fed925"/>
      <path id="Caminho_23558" data-name="Caminho 23558" d="M683.445,634.252c-.087.027-.174.059-.26.094a3.285,3.285,0,0,0-1.791,4.288A8.385,8.385,0,0,0,687,643.656a7.423,7.423,0,0,0,6.537-1.293c2.468-1.938,3.19-1.073,3.621-.558a12.386,12.386,0,0,0,2.995,2.659,7.949,7.949,0,0,0,9.927-1.07c.6-.533.973-.617,1.058-.6s.4.182.773.792a3.286,3.286,0,1,0,5.6-3.443A7.324,7.324,0,0,0,705.7,638.5a2.117,2.117,0,0,1-1.343.656,3.911,3.911,0,0,1-2.155-1.56,7.8,7.8,0,0,0-7.234-2.935,11.576,11.576,0,0,0-5.489,2.536.944.944,0,0,1-.8.107,1.842,1.842,0,0,1-1.2-1.163,3.287,3.287,0,0,0-4.028-1.885" transform="translate(-508.841 -236.224)" fill="#ff9e18"/>
      <path id="Caminho_23559" data-name="Caminho 23559" d="M683.29,631.766c-.089.022-.177.048-.266.077A3.286,3.286,0,0,0,680.956,636a8.382,8.382,0,0,0,5.264,5.379,7.423,7.423,0,0,0,6.609-.861c2.589-1.772,3.253-.862,3.649-.319a12.4,12.4,0,0,0,2.815,2.85,7.956,7.956,0,0,0,9.976-.417c.629-.493,1.011-.553,1.1-.535s.385.209.719.841a3.286,3.286,0,1,0,5.812-3.068,7.325,7.325,0,0,0-11.676-2.414,2.114,2.114,0,0,1-1.383.567,3.91,3.91,0,0,1-2.049-1.7,7.8,7.8,0,0,0-7.026-3.4,11.584,11.584,0,0,0-5.643,2.171.952.952,0,0,1-.809.055,1.846,1.846,0,0,1-1.123-1.24,3.287,3.287,0,0,0-3.9-2.146" transform="translate(-508.841 -232.766)" fill="#fed925"/>
      <path id="Caminho_23560" data-name="Caminho 23560" d="M642.858,591.01c-.078.048-.155.1-.23.154a3.287,3.287,0,0,0-.71,4.593,8.386,8.386,0,0,0,6.647,3.53,7.425,7.425,0,0,0,6.037-2.824c1.931-2.473,2.839-1.807,3.381-1.409a12.424,12.424,0,0,0,3.546,1.862,7.952,7.952,0,0,0,9.38-3.42c.451-.661.8-.833.882-.842s.43.082.94.584a3.286,3.286,0,0,0,4.609-4.685,7.326,7.326,0,0,0-11.859,1.238,2.107,2.107,0,0,1-1.146.959,3.9,3.9,0,0,1-2.467-1,7.8,7.8,0,0,0-7.726-1.114,11.577,11.577,0,0,0-4.72,3.779.955.955,0,0,1-.755.3,1.844,1.844,0,0,1-1.446-.842,3.287,3.287,0,0,0-4.363-.864" transform="translate(-508.841 -141.769)" fill="#ff9e18"/>
      <path id="Caminho_23561" data-name="Caminho 23561" d="M642.94,587.752c-.081.043-.161.089-.239.139a3.285,3.285,0,0,0-1.01,4.536,8.384,8.384,0,0,0,6.4,3.958,7.422,7.422,0,0,0,6.209-2.422c2.089-2.341,2.951-1.617,3.466-1.185a12.4,12.4,0,0,0,3.416,2.092,7.956,7.956,0,0,0,9.585-2.8c.493-.629.849-.779.935-.781s.424.11.9.644a3.286,3.286,0,0,0,4.906-4.373,7.325,7.325,0,0,0-11.915.458,2.114,2.114,0,0,1-1.206.882,3.9,3.9,0,0,1-2.4-1.157,7.8,7.8,0,0,0-7.637-1.618,11.576,11.576,0,0,0-4.958,3.462.953.953,0,0,1-.772.247,1.847,1.847,0,0,1-1.388-.935,3.287,3.287,0,0,0-4.3-1.148" transform="translate(-508.841 -137.529)" fill="#fed925"/>
      <path id="Caminho_23562" data-name="Caminho 23562" d="M567.137,606.18c-.075.053-.148.109-.22.168a3.287,3.287,0,0,0-.417,4.629,8.384,8.384,0,0,0,6.857,3.1,7.426,7.426,0,0,0,5.845-3.2c1.771-2.591,2.719-1.984,3.286-1.621a12.42,12.42,0,0,0,3.656,1.634,7.953,7.953,0,0,0,9.145-4.008c.408-.687.742-.881.827-.9s.435.055.975.523a3.286,3.286,0,0,0,4.3-4.968,7.326,7.326,0,0,0-11.757,1.987,2.111,2.111,0,0,1-1.083,1.03,3.907,3.907,0,0,1-2.524-.839,7.8,7.8,0,0,0-7.782-.623,11.58,11.58,0,0,0-4.471,4.071.951.951,0,0,1-.735.344,1.842,1.842,0,0,1-1.5-.748,3.287,3.287,0,0,0-4.409-.586" transform="translate(-508.841 -169.904)" fill="#ff9e18"/>
      <path id="Caminho_23563" data-name="Caminho 23563" d="M567.282,602.922c-.078.048-.155.1-.23.154a3.285,3.285,0,0,0-.721,4.59,8.384,8.384,0,0,0,6.639,3.545,7.42,7.42,0,0,0,6.043-2.81c1.937-2.468,2.843-1.8,3.385-1.4a12.4,12.4,0,0,0,3.541,1.871,7.954,7.954,0,0,0,9.388-3.4c.453-.659.8-.831.884-.839s.43.083.939.586a3.286,3.286,0,1,0,4.619-4.675,7.325,7.325,0,0,0-11.861,1.211,2.108,2.108,0,0,1-1.149.957,3.9,3.9,0,0,1-2.464-1,7.8,7.8,0,0,0-7.724-1.131,11.565,11.565,0,0,0-4.728,3.768.958.958,0,0,1-.756.3,1.845,1.845,0,0,1-1.444-.845,3.287,3.287,0,0,0-4.361-.874" transform="translate(-508.841 -165.671)" fill="#fed925"/>
      <path id="Caminho_23564" data-name="Caminho 23564" d="M583.413,552.027c-.09.018-.179.041-.269.067a3.285,3.285,0,0,0-2.226,4.079,8.384,8.384,0,0,0,5.054,5.576,7.421,7.421,0,0,0,6.637-.607c2.655-1.671,3.284-.736,3.659-.178a12.408,12.408,0,0,0,2.7,2.955,7.954,7.954,0,0,0,9.985-.034c.648-.468,1.031-.513,1.114-.492s.377.223.687.868a3.286,3.286,0,1,0,5.925-2.843,7.326,7.326,0,0,0-11.575-2.86,2.114,2.114,0,0,1-1.4.514,3.911,3.911,0,0,1-1.981-1.775,7.8,7.8,0,0,0-6.89-3.671,11.578,11.578,0,0,0-5.723,1.954.954.954,0,0,1-.811.023,1.848,1.848,0,0,1-1.075-1.283,3.286,3.286,0,0,0-3.81-2.293" transform="translate(-508.841 -74.486)" fill="#ff9e18"/>
      <path id="Caminho_23565" data-name="Caminho 23565" d="M583.157,549.074c-.091.013-.181.029-.272.049a3.285,3.285,0,0,0-2.489,3.924,8.382,8.382,0,0,0,4.678,5.9,7.421,7.421,0,0,0,6.661-.171c2.76-1.493,3.326-.519,3.663.062a12.418,12.418,0,0,0,2.5,3.127,7.952,7.952,0,0,0,9.965.62,1.882,1.882,0,0,1,1.145-.418c.078.026.362.248.628.912a3.286,3.286,0,0,0,6.1-2.449,7.326,7.326,0,0,0-11.363-3.613,2.107,2.107,0,0,1-1.434.421,3.91,3.91,0,0,1-1.861-1.9,7.8,7.8,0,0,0-6.635-4.114,11.571,11.571,0,0,0-5.838,1.573.95.95,0,0,1-.811-.03,1.84,1.84,0,0,1-.988-1.35,3.287,3.287,0,0,0-3.652-2.538" transform="translate(-508.841 -70.582)" fill="#fed925"/>
      <path id="Caminho_23566" data-name="Caminho 23566" d="M725.306,555.547c-.087.028-.174.059-.26.094a3.286,3.286,0,0,0-1.791,4.288,8.382,8.382,0,0,0,5.606,5.022,7.42,7.42,0,0,0,6.537-1.293c2.468-1.937,3.19-1.073,3.621-.557a12.408,12.408,0,0,0,2.995,2.659,7.953,7.953,0,0,0,9.927-1.07c.6-.533.973-.618,1.058-.6s.4.183.773.792a3.286,3.286,0,1,0,5.6-3.443,7.325,7.325,0,0,0-11.809-1.643,2.118,2.118,0,0,1-1.343.657,3.911,3.911,0,0,1-2.155-1.56,7.8,7.8,0,0,0-7.234-2.935,11.575,11.575,0,0,0-5.489,2.536.951.951,0,0,1-.8.107,1.842,1.842,0,0,1-1.2-1.163,3.287,3.287,0,0,0-4.028-1.886" transform="translate(-508.841 -78.816)" fill="#ff9e18"/>
      <path id="Caminho_23567" data-name="Caminho 23567" d="M725.151,553.061c-.089.022-.177.048-.266.077a3.286,3.286,0,0,0-2.068,4.161,8.382,8.382,0,0,0,5.264,5.379,7.423,7.423,0,0,0,6.609-.861c2.589-1.772,3.253-.862,3.649-.319a12.4,12.4,0,0,0,2.815,2.85,7.956,7.956,0,0,0,9.976-.417c.629-.493,1.011-.553,1.095-.535s.385.209.719.841a3.286,3.286,0,1,0,5.812-3.068,7.325,7.325,0,0,0-11.676-2.414,2.114,2.114,0,0,1-1.383.567,3.91,3.91,0,0,1-2.049-1.7,7.8,7.8,0,0,0-7.026-3.4,11.584,11.584,0,0,0-5.643,2.171.952.952,0,0,1-.809.055,1.846,1.846,0,0,1-1.123-1.24,3.287,3.287,0,0,0-3.9-2.146" transform="translate(-508.841 -75.356)" fill="#fed925"/>
      <path id="Caminho_23568" data-name="Caminho 23568" d="M622.084,779.5c-.091.006-.183.016-.275.03a3.288,3.288,0,0,0-2.754,3.744,8.386,8.386,0,0,0,4.261,6.2,7.421,7.421,0,0,0,6.658.288c2.856-1.3,3.353-.289,3.65.315a12.4,12.4,0,0,0,2.282,3.291,7.954,7.954,0,0,0,9.9,1.306,1.879,1.879,0,0,1,1.17-.338c.077.031.344.272.564.952a3.286,3.286,0,1,0,6.253-2.022,7.324,7.324,0,0,0-11.086-4.387,2.111,2.111,0,0,1-1.46.32,3.9,3.9,0,0,1-1.726-2.024,7.8,7.8,0,0,0-6.335-4.562,11.57,11.57,0,0,0-5.933,1.168.957.957,0,0,1-.807-.086,1.846,1.846,0,0,1-.893-1.415,3.286,3.286,0,0,0-3.468-2.784" transform="translate(-508.841 -533.465)" fill="#ff9e18"/>
      <path id="Caminho_23569" data-name="Caminho 23569" d="M621.7,776.743q-.138,0-.276.012a3.286,3.286,0,0,0-2.994,3.555,8.386,8.386,0,0,0,3.845,6.47,7.426,7.426,0,0,0,6.625.725c2.935-1.11,3.364-.069,3.621.552a12.426,12.426,0,0,0,2.061,3.435,7.956,7.956,0,0,0,9.792,1.951,1.893,1.893,0,0,1,1.191-.261,1.675,1.675,0,0,1,.5.987,3.286,3.286,0,1,0,6.372-1.607,7.326,7.326,0,0,0-10.775-5.105,2.115,2.115,0,0,1-1.478.225,3.907,3.907,0,0,1-1.589-2.134,7.8,7.8,0,0,0-6.023-4.967,11.582,11.582,0,0,0-6,.776.95.95,0,0,1-.8-.138,1.844,1.844,0,0,1-.8-1.471,3.286,3.286,0,0,0-3.278-3.005" transform="translate(-508.841 -529.797)" fill="#fed925"/>
    </g>
  </g>
</svg>
