<svg xmlns="http://www.w3.org/2000/svg" width="52.188" height="52.19" viewBox="0 0 52.188 52.19">
  <path id="Engrenagem" d="M923.866,372.168l-3.916-.5a19.7,19.7,0,0,0-1.185-2.862l2.418-3.114a3.1,3.1,0,0,0-.254-4.122l-3.281-3.281a3.1,3.1,0,0,0-4.134-.265l-3.11,2.419a19.54,19.54,0,0,0-2.864-1.185l-.5-3.91a3.121,3.121,0,0,0-3.095-2.75h-4.666a3.119,3.119,0,0,0-3.1,2.744l-.5,3.916a19.387,19.387,0,0,0-2.864,1.185l-3.112-2.419a3.1,3.1,0,0,0-4.122.255l-3.28,3.278a3.1,3.1,0,0,0-.265,4.137l2.418,3.112a19.467,19.467,0,0,0-1.185,2.862l-3.909.5a3.121,3.121,0,0,0-2.75,3.1v4.665a3.12,3.12,0,0,0,2.743,3.1l3.916.5a19.725,19.725,0,0,0,1.185,2.862l-2.418,3.114a3.1,3.1,0,0,0,.254,4.122l3.281,3.281a3.107,3.107,0,0,0,4.134.262l3.112-2.418a19.223,19.223,0,0,0,2.862,1.185l.5,3.908a3.119,3.119,0,0,0,3.1,2.753h4.666a3.119,3.119,0,0,0,3.095-2.743l.5-3.916a19.624,19.624,0,0,0,2.862-1.185l3.114,2.418a3.1,3.1,0,0,0,4.122-.254l3.28-3.28a3.1,3.1,0,0,0,.265-4.135l-2.418-3.112a19.285,19.285,0,0,0,1.185-2.862l3.907-.5a3.122,3.122,0,0,0,2.75-3.1v-4.665A3.117,3.117,0,0,0,923.866,372.168Zm-22.252,15.843A10.414,10.414,0,1,1,912.029,377.6,10.427,10.427,0,0,1,901.614,388.011Z" transform="translate(-875.519 -351.501)" fill="none" stroke="#003777" stroke-linecap="round" stroke-linejoin="round" stroke-width="2.2"/>
</svg>
