<svg xmlns="http://www.w3.org/2000/svg" width="54.592" height="50.043" viewBox="0 0 54.592 50.043">
  <path id="Fones" d="M636.567,375.836h-3.623V372.3a19.216,19.216,0,0,0-6.28-14.193,18.951,18.951,0,0,0-14.726-4.877c-9.675.924-17.255,9.643-17.255,19.846v2.757H591.06a4.547,4.547,0,0,0-4.542,4.543V388.4a4.547,4.547,0,0,0,4.542,4.543h4.758a1.137,1.137,0,0,0,1.137-1.137V373.08c0-9.045,6.675-16.769,15.2-17.58a16.7,16.7,0,0,1,12.981,4.3,16.938,16.938,0,0,1,5.533,12.509v21.838a3.355,3.355,0,0,1-3.344,3.356h-4.492c-.083,0-.134.071-.211.087a4.476,4.476,0,0,0-4.328-3.5,4.546,4.546,0,1,0,0,9.092,4.476,4.476,0,0,0,4.327-3.5c.078.017.129.088.212.088h4.492a5.631,5.631,0,0,0,5.621-5.631v-1.2h3.623a4.549,4.549,0,0,0,4.543-4.544v-8.019a4.545,4.545,0,0,0-4.543-4.537M588.795,388.4v-8.019a2.269,2.269,0,0,1,2.267-2.268h3.621v12.555H591.06a2.269,2.269,0,0,1-2.265-2.27Zm29.5,12.508a2.272,2.272,0,1,1,2.265-2.28v.008a2.272,2.272,0,0,1-2.265,2.27ZM638.835,388.4a2.269,2.269,0,0,1-2.268,2.268h-3.623V378.109h3.623a2.27,2.27,0,0,1,2.268,2.268Z" transform="translate(-586.518 -353.135)" fill="#003777"/>
</svg>
