<svg xmlns="http://www.w3.org/2000/svg" width="54.782" height="51.1" viewBox="0 0 54.782 51.1">
  <g id="Icon_Libra" data-name="Icon Libra" transform="translate(-874.276 -243.876)">
    <path id="Caminho_23067" data-name="Caminho 23067" d="M927.777,266.083a17.1,17.1,0,0,0-22.3-9.315l-4.137,1.771v-8.454a65.624,65.624,0,0,1-10.436-6.209,4.234,4.234,0,0,0-4.234,4.234v.18a4.219,4.219,0,0,0-6.2,3.736v2.251a4.219,4.219,0,0,0-6.2,3.735l.007,14.393a1.173,1.173,0,0,0,.021.222,17.1,17.1,0,0,0,16.7,13.739c.529,0,1.062-.031,1.6-.08a4.805,4.805,0,0,1,4.372,5.2c-.007.083-.016.165-.028.248a4.236,4.236,0,0,0,7.738,1.2l.091-.15a4.161,4.161,0,0,0,3.61,2.077,4.276,4.276,0,0,0,1.008-.121,4.207,4.207,0,0,0,2.62-1.917l1.185-1.946a4.164,4.164,0,0,0,3.61,2.072,4.278,4.278,0,0,0,1.008-.122,4.21,4.21,0,0,0,2.62-1.917l7.486-12.293a1.052,1.052,0,0,0,.1-.2,17.035,17.035,0,0,0-.243-12.338M895.72,248.7a1.961,1.961,0,0,1,3.348,1.386v9.425l-3.914,1.678-.008-11.1a1.953,1.953,0,0,1,.574-1.386m-13.441,32.51a14.764,14.764,0,0,1-5.722-8.915l-.007-14.279a1.961,1.961,0,1,1,3.922-.013v7.1a1.181,1.181,0,0,0,1.145,1.167,1.136,1.136,0,0,0,1.138-1.135v0l-.009-13.105a1.961,1.961,0,1,1,3.921,0v10a1.138,1.138,0,0,0,1.138,1.138h.012a1.138,1.138,0,0,0,1.138-1.139l-.01-13.912a1.961,1.961,0,0,1,3.922-.013v14.072l-1.5.639a3.223,3.223,0,0,0-1.774,3.978,5.864,5.864,0,0,0,6.949,3.786l5.126-1.284a.107.107,0,0,1,.117.158l-8.612,14.17c-.062.1-.1.21-.151.315a14.675,14.675,0,0,1-10.747-2.729m43.636-3.669-7.429,12.2a1.961,1.961,0,0,1-3.35-2.04l3.691-6.056a1.137,1.137,0,0,0-.379-1.564h-.005a1.14,1.14,0,0,0-1.564.381l-6.813,11.194a1.961,1.961,0,1,1-3.349-2.04l5.208-8.541a1.139,1.139,0,0,0-.38-1.564h-.01a1.138,1.138,0,0,0-1.564.379l-7.234,11.884a1.96,1.96,0,0,1-3.348-2.04l7.664-12.571a1.139,1.139,0,0,0-.379-1.565h-.005l-.006,0a1.138,1.138,0,0,0-1.564.38l-6.63,10.889a1.963,1.963,0,1,1-3.355-2.039l8.613-14.171a2.383,2.383,0,0,0-2.616-3.549l-5.126,1.286a3.582,3.582,0,0,1-4.234-2.31.937.937,0,0,1,.516-1.156l8.377-3.587h.007l5.708-2.444a14.8,14.8,0,0,1,19.555,18.669Z" fill="#003777"/>
    <path id="Caminho_23068" data-name="Caminho 23068" d="M888.452,290.8a14.744,14.744,0,0,1-7.908-2.855,14.994,14.994,0,0,1-2.077-1.847,1.138,1.138,0,1,0-1.666,1.551,17.244,17.244,0,0,0,2.4,2.13,17.011,17.011,0,0,0,9.131,3.294h.066a1.138,1.138,0,0,0,.064-2.275Z" fill="#003777"/>
    <path id="Caminho_23069" data-name="Caminho 23069" d="M908.976,252.281a14.727,14.727,0,0,1,11.147,1.313,1.138,1.138,0,0,0,1.1-1.992,16.974,16.974,0,0,0-12.861-1.512,1.138,1.138,0,0,0,.614,2.192Z" fill="#003777"/>
  </g>
</svg>
