<svg xmlns="http://www.w3.org/2000/svg" width="53.841" height="50.238" viewBox="0 0 53.841 50.238">
  <g id="Icon_Som" data-name="Icon Som" transform="translate(-874.276 -32.392)">
    <path id="Caminho_23061" data-name="Caminho 23061" d="M899.7,82.63a3.222,3.222,0,0,1-2.841-1.708c-2.153-3.944-4.841-8.823-7.09-12.782a4.231,4.231,0,0,0-3.679-2.121h-2.876a8.831,8.831,0,0,1-8.816-7.061,8.517,8.517,0,0,1,6.952-9.837A8.4,8.4,0,0,1,882.787,49h3.3a4.237,4.237,0,0,0,3.68-2.122c2.25-3.955,4.937-8.838,7.092-12.782A3.269,3.269,0,0,1,903,35.662V79.353a3.227,3.227,0,0,1-2.465,3.168,3.292,3.292,0,0,1-.832.109M876.762,58.567a6.416,6.416,0,0,0,6.456,5.06h2.872a6.63,6.63,0,0,1,5.76,3.331c2.254,3.965,4.951,8.861,7.11,12.819a.879.879,0,0,0,1.648-.423V35.662a.843.843,0,0,0-.664-.849.832.832,0,0,0-.982.428C896.8,39.2,894.1,44.094,891.85,48.059a6.626,6.626,0,0,1-5.76,3.332h-3.306a6.124,6.124,0,0,0-6.025,7.176Z" fill="#003777"/>
    <path id="Caminho_23062" data-name="Caminho 23062" d="M909.411,75.263a1.2,1.2,0,0,1-.859-2.03,22.744,22.744,0,0,0,0-31.643,1.2,1.2,0,0,1,1.673-1.71l.045.047a25.141,25.141,0,0,1,0,34.969,1.2,1.2,0,0,1-.859.367" fill="#003777"/>
    <path id="Caminho_23063" data-name="Caminho 23063" d="M917.294,81.969a1.2,1.2,0,0,1-.848-2.039,31.969,31.969,0,0,0,0-45.034,1.2,1.2,0,1,1,1.7-1.685,34.354,34.354,0,0,1,0,48.409,1.189,1.189,0,0,1-.848.349" fill="#003777"/>
  </g>
</svg>
