<svg xmlns="http://www.w3.org/2000/svg" width="38.83" height="47.987" viewBox="0 0 38.83 47.987">
  <g id="Icon_Lista" data-name="Icon Lista" transform="translate(-66.029 -353.603)">
    <path id="Prancheta" d="M4.5,0H32.133a4.5,4.5,0,0,1,4.5,4.5V41.29a4.5,4.5,0,0,1-4.5,4.5H4.5a4.5,4.5,0,0,1-4.5-4.5V4.5A4.5,4.5,0,0,1,4.5,0Z" transform="translate(67.129 354.703)" fill="none" stroke="#003777" stroke-linecap="round" stroke-linejoin="round" stroke-width="2.2"/>
    <path id="Clip" d="M91.532,362.3H79.355a3.069,3.069,0,0,1-3.069-3.069V354.7H94.6v4.53A3.069,3.069,0,0,1,91.532,362.3Z" fill="none" stroke="#003777" stroke-linecap="round" stroke-linejoin="round" stroke-width="2.2"/>
    <line id="Linha_03" data-name="Linha 03" x2="15.262" transform="translate(77.813 388.28)" fill="none" stroke="#003777" stroke-linecap="round" stroke-linejoin="round" stroke-width="2.2"/>
    <line id="Linha_02" data-name="Linha 02" x2="15.262" transform="translate(77.813 380.649)" fill="none" stroke="#003777" stroke-linecap="round" stroke-linejoin="round" stroke-width="2.2"/>
    <line id="Linha_01" data-name="Linha 01" x2="15.262" transform="translate(77.813 373.018)" fill="none" stroke="#003777" stroke-linecap="round" stroke-linejoin="round" stroke-width="2.2"/>
  </g>
</svg>
