<svg id="ícone_Plano_de_Saúde" data-name="ícone Plano de Saúde" xmlns="http://www.w3.org/2000/svg" xmlns:xlink="http://www.w3.org/1999/xlink" width="93.128" height="120.926" viewBox="0 0 93.128 120.926">
  <defs>
    <clipPath id="clip-path">
      <rect id="Retângulo_19432" data-name="Retângulo 19432" width="93.128" height="120.926" fill="none"/>
    </clipPath>
  </defs>
  <g id="Grupo_13359" data-name="Grupo 13359" clip-path="url(#clip-path)">
    <path id="Caminho_25916" data-name="Caminho 25916" d="M68.477,7.315H57.7a10.357,10.357,0,0,0-19.8,0H27.391a2.593,2.593,0,0,0-2.739,2.417v7.252H7.951C3.566,16.984,0,20.155,0,24.052v89.8c0,3.9,3.565,7.069,7.95,7.069H85.178c4.384,0,7.95-3.171,7.95-7.069v-89.8c0-3.9-3.567-7.068-7.95-7.068H71.216V9.732a2.593,2.593,0,0,0-2.739-2.417M30.13,12.149H40.5a2.477,2.477,0,0,0,2.59-2.467,4.713,4.713,0,1,1,9.426,0,2.478,2.478,0,0,0,2.591,2.467H65.738V24.235H30.13Zm55.094,9.669A2.362,2.362,0,0,1,87.65,24.1v89.7a2.363,2.363,0,0,1-2.426,2.288H7.905A2.363,2.363,0,0,1,5.479,113.8V24.1a2.363,2.363,0,0,1,2.427-2.287H24.652v4.834a2.593,2.593,0,0,0,2.739,2.417H68.477a2.593,2.593,0,0,0,2.739-2.417V21.818Z" transform="translate(0)" fill="#0047ba"/>
    <path id="Caminho_25917" data-name="Caminho 25917" d="M46.21,86.394a2.593,2.593,0,0,0,2.739,2.417H91.266a2.436,2.436,0,1,0,0-4.834H48.949a2.593,2.593,0,0,0-2.739,2.417m45.055,16.921H48.949a2.436,2.436,0,1,0,0,4.834H91.266a2.436,2.436,0,1,0,0-4.834m0,21.755H48.949a2.436,2.436,0,1,0,0,4.834H91.266a2.436,2.436,0,1,0,0-4.834M40.243,77.343l-7.225,7.013-1.711-2.345a2.97,2.97,0,0,0-3.786-.723,2.254,2.254,0,0,0-.82,3.341l3.642,4.991a2.818,2.818,0,0,0,2.077,1.1c.075.006.151.009.226.009a2.915,2.915,0,0,0,2.026-.791L44.3,80.6a2.223,2.223,0,0,0-.183-3.415,3.008,3.008,0,0,0-3.869.162m0,20.948L33.018,105.3l-1.711-2.345a2.967,2.967,0,0,0-3.786-.723,2.254,2.254,0,0,0-.82,3.341l3.642,4.991a2.818,2.818,0,0,0,2.077,1.1c.075.006.151.008.226.008a2.915,2.915,0,0,0,2.026-.79l9.623-9.341a2.223,2.223,0,0,0-.183-3.415,3,3,0,0,0-3.869.162m0,20.948-7.225,7.013-1.711-2.344a2.969,2.969,0,0,0-3.786-.723,2.254,2.254,0,0,0-.82,3.341l3.642,4.989a2.965,2.965,0,0,0,4.329.317l9.623-9.34a2.223,2.223,0,0,0-.183-3.415,3.006,3.006,0,0,0-3.869.162" transform="translate(-12.288 -37.986)" fill="#0047ba"/>
  </g>
</svg>
