<svg xmlns="http://www.w3.org/2000/svg" width="93.931" height="94.31" viewBox="0 0 93.931 94.31">
  <path id="Ícone_Previdência_Privada" data-name="Ícone Previdência Privada" d="M70.933,46.18V17.755a2.55,2.55,0,0,0-.376-1.364,3.15,3.15,0,0,0-.943-.988L51.167,1.757A7.321,7.321,0,0,0,49.378.72,5.278,5.278,0,0,0,47.4.344H3.732A4.393,4.393,0,0,0,1.424,1.522,3.122,3.122,0,0,0,.53,3.829V91.359a3.387,3.387,0,0,0,.894,2.259,2.908,2.908,0,0,0,2.307,1.036H91.262a3.3,3.3,0,0,0,3.2-3.295V64.913a3.04,3.04,0,0,0-.328-1.458,5.582,5.582,0,0,0-.988-1.271L72.532,48.538a2.813,2.813,0,0,1-1.178-1.081,2.523,2.523,0,0,1-.425-1.271Zm-23.245-1.6V13.237a2.874,2.874,0,0,1,1.7-2.683,2.631,2.631,0,0,1,3.105.235l10.731,8.1a2.908,2.908,0,0,1,.943,1.081,2.75,2.75,0,0,1,.376,1.271V44.861a3.282,3.282,0,0,1-.894,2.165,2.908,2.908,0,0,1-2.307,1.036H50.607a3.273,3.273,0,0,1-2.072-1.223,3.467,3.467,0,0,1-.846-2.259h0Zm4.235,35.578v4.8a3.213,3.213,0,0,1-.895,2.211,2.97,2.97,0,0,1-2.307.988H44.487a3.387,3.387,0,0,1-2.259-.895,2.908,2.908,0,0,1-1.036-2.307V80.436a3.3,3.3,0,0,1,3.295-3.2h4.235a3.22,3.22,0,0,1,2.307.846,2.743,2.743,0,0,1,.895,2.072ZM64.533,57.1V84.956a3.213,3.213,0,0,1-.895,2.211,2.97,2.97,0,0,1-2.307.988h0a3.213,3.213,0,0,1-2.211-.895,2.97,2.97,0,0,1-.988-2.307V74.036a3.294,3.294,0,0,0-.943-2.259,3.049,3.049,0,0,0-2.352-1.036H37.707a3.2,3.2,0,0,0-2.165.943,3.049,3.049,0,0,0-1.036,2.352V84.953a3.213,3.213,0,0,1-.894,2.211,2.97,2.97,0,0,1-2.307.988H10.128A4.035,4.035,0,0,1,7.87,87.071a2.832,2.832,0,0,1-.943-2.117V10.319A3.294,3.294,0,0,1,7.87,8.06a2.95,2.95,0,0,1,2.259-1.036H37.987a3.3,3.3,0,0,1,3.2,3.295V50.978a3.3,3.3,0,0,0,3.295,3.2H61.612a3.066,3.066,0,0,1,2.918,2.918h0Zm6.4,27.859V61.145a2.99,2.99,0,0,1,1.6-2.729,2.848,2.848,0,0,1,3.2.093l10.731,7.153a2.955,2.955,0,0,1,.988,1.178,3.648,3.648,0,0,1,.328,1.554V84.959a3.213,3.213,0,0,1-.895,2.211,2.97,2.97,0,0,1-2.307.988H73.848a3.7,3.7,0,0,1-2.024-1.081,2.888,2.888,0,0,1-.894-2.117ZM21.146,64.344h0a6.427,6.427,0,0,0,6.4-6.4h0a6.427,6.427,0,0,0-6.4-6.4h0a6.427,6.427,0,0,0-6.4,6.4h0a6.427,6.427,0,0,0,6.4,6.4Zm0,19.01h0a6.427,6.427,0,0,0,6.4-6.4h0a6.427,6.427,0,0,0-6.4-6.4h0a6.427,6.427,0,0,0-6.4,6.4h0a6.427,6.427,0,0,0,6.4,6.4Zm0-38.3h0a6.427,6.427,0,0,0,6.4-6.4h0a6.427,6.427,0,0,0-6.4-6.4h0a6.427,6.427,0,0,0-6.4,6.4h0a6.427,6.427,0,0,0,6.4,6.4Zm0-19.013h0a6.427,6.427,0,0,0,6.4-6.4h0a6.427,6.427,0,0,0-6.4-6.4h0a6.427,6.427,0,0,0-6.4,6.4h0a6.427,6.427,0,0,0,6.4,6.4Z" transform="translate(-0.53 -0.344)" fill="#0046c0"/>
</svg>
