<svg xmlns="http://www.w3.org/2000/svg" width="53.521" height="50.174" viewBox="0 0 53.521 50.174">
  <g id="Icon_Legenda" data-name="Icon Legenda" transform="translate(-874.276 -138.382)">
    <path id="Caminho_23064" data-name="Caminho 23064" d="M916.726,151.632h-31.2a1.115,1.115,0,0,0,0,2.23h31.2a1.115,1.115,0,0,0,0-2.23" fill="#003777"/>
    <path id="Caminho_23065" data-name="Caminho 23065" d="M916.726,162.892h-31.2a1.115,1.115,0,0,0-.007,2.23h31.205a1.115,1.115,0,0,0,0-2.23" fill="#003777"/>
    <path id="Caminho_23066" data-name="Caminho 23066" d="M922.909,138.382H879.165a4.894,4.894,0,0,0-4.889,4.889v30.391a4.891,4.891,0,0,0,4.889,4.887h15.2a6.944,6.944,0,0,1,4.931,2.039l7.666,7.641a1.116,1.116,0,0,0,.788.327,1.05,1.05,0,0,0,.428-.087,1.112,1.112,0,0,0,.687-1.028v-3.323a5.579,5.579,0,0,1,5.572-5.571h8.469a4.894,4.894,0,0,0,4.891-4.887V143.269a4.9,4.9,0,0,0-4.888-4.887m2.661,35.28a2.662,2.662,0,0,1-2.661,2.657h-8.468a7.81,7.81,0,0,0-7.8,7.8v.635l-5.764-5.744a9.153,9.153,0,0,0-6.506-2.692h-15.2a2.662,2.662,0,0,1-2.659-2.657V143.268a2.662,2.662,0,0,1,2.659-2.658h43.744a2.663,2.663,0,0,1,2.661,2.658Z" fill="#003777"/>
  </g>
</svg>
